  0
SECTION
  2
HEADER
  9
$ACADVER
  1
AC1018
  9
$ACADMAINTVER
 70
     0
  9
$DWGCODEPAGE
  3
ANSI_1252
  9
$EXTMIN
 10
511.229235730081
 20
-2664.09227587863
 30
0.0
  9
$EXTMAX
 10
4094.37530746361
 20
-557.634262784417
 30
0.0
  9
$LIMMIN
 10
0.0
 20
0.0
  9
$LIMMAX
 10
12.0
 20
9.0
  9
$ORTHOMODE
 70
     0
  9
$REGENMODE
 70
     1
  9
$FILLMODE
 70
     1
  9
$QTEXTMODE
 70
     0
  9
$MIRRTEXT
 70
     1
  9
$LTSCALE
 40
1.0
  9
$ATTMODE
 70
     1
  9
$TEXTSIZE
 40
0.2
  9
$TRACEWID
 40
0.05
  9
$TEXTSTYLE
  7
Standard
  9
$CLAYER
  8
0
  9
$CELTYPE
  6
ByLayer
  9
$CECOLOR
 62
   256
  9
$CELTSCALE
 40
1.0
  9
$DISPSILH
 70
     0
  9
$LUNITS
 70
     2
  9
$LUPREC
 70
     4
  9
$SKETCHINC
 40
0.1
  9
$FILLETRAD
 40
0.5
  9
$AUNITS
 70
     0
  9
$AUPREC
 70
     0
  9
$MENU
  1
.
  9
$ELEVATION
 40
0.0
  9
$PELEVATION
 40
0.0
  9
$THICKNESS
 40
0.0
  9
$LIMCHECK
 70
     0
  9
$CHAMFERA
 40
0.5
  9
$CHAMFERB
 40
0.5
  9
$CHAMFERC
 40
1.0
  9
$CHAMFERD
 40
0.0
  9
$SKPOLY
 70
     0
  9
$TDCREATE
 40
2455343.56230316
  9
$TDUCREATE
 40
2455343.728969826
  9
$TDUPDATE
 40
2455343.562303171
  9
$TDUUPDATE
 40
2455343.728969838
  9
$TDINDWG
 40
0.0000000116
  9
$TDUSRTIMER
 40
0.0000000116
  9
$USRTIMER
 70
     1
  9
$ANGBASE
 50
0.0
  9
$ANGDIR
 70
     0
  9
$PDMODE
 70
     0
  9
$PDSIZE
 40
0.0
  9
$PLINEWID
 40
0.0
  9
$SPLFRAME
 70
     0
  9
$SPLINETYPE
 70
     6
  9
$SPLINESEGS
 70
     8
  9
$HANDSEED
  5
000201BF
  9
$SURFTAB1
 70
     6
  9
$SURFTAB2
 70
     6
  9
$SURFTYPE
 70
     6
  9
$SURFU
 70
     6
  9
$SURFV
 70
     6
  9
$UCSBASE
  2

  9
$UCSNAME
  2

  9
$UCSORG
 10
0.0
 20
0.0
 30
0.0
  9
$UCSXDIR
 10
1.0
 20
0.0
 30
0.0
  9
$UCSYDIR
 10
0.0
 20
1.0
 30
0.0
  9
$UCSORTHOREF
  2

  9
$UCSORTHOVIEW
 70
     0
  9
$UCSORGTOP
 10
0.0
 20
0.0
 30
0.0
  9
$UCSORGBOTTOM
 10
0.0
 20
0.0
 30
0.0
  9
$UCSORGLEFT
 10
0.0
 20
0.0
 30
0.0
  9
$UCSORGRIGHT
 10
0.0
 20
0.0
 30
0.0
  9
$UCSORGFRONT
 10
0.0
 20
0.0
 30
0.0
  9
$UCSORGBACK
 10
0.0
 20
0.0
 30
0.0
  9
$PUCSBASE
  2

  9
$PUCSNAME
  2

  9
$PUCSORG
 10
0.0
 20
0.0
 30
0.0
  9
$PUCSXDIR
 10
1.0
 20
0.0
 30
0.0
  9
$PUCSYDIR
 10
0.0
 20
1.0
 30
0.0
  9
$PUCSORTHOREF
  2

  9
$PUCSORTHOVIEW
 70
     0
  9
$PUCSORGTOP
 10
0.0
 20
0.0
 30
0.0
  9
$PUCSORGBOTTOM
 10
0.0
 20
0.0
 30
0.0
  9
$PUCSORGLEFT
 10
0.0
 20
0.0
 30
0.0
  9
$PUCSORGRIGHT
 10
0.0
 20
0.0
 30
0.0
  9
$PUCSORGFRONT
 10
0.0
 20
0.0
 30
0.0
  9
$PUCSORGBACK
 10
0.0
 20
0.0
 30
0.0
  9
$WORLDVIEW
 70
     1
  9
$SHADEDGE
 70
     3
  9
$SHADEDIF
 70
    70
  9
$TILEMODE
 70
     1
  9
$MAXACTVP
 70
    64
  9
$PINSBASE
 10
0.0
 20
0.0
 30
0.0
  9
$PLIMCHECK
 70
     0
  9
$PEXTMIN
 10
1.000000000000000E+20
 20
1.000000000000000E+20
 30
1.000000000000000E+20
  9
$PEXTMAX
 10
-1.000000000000000E+20
 20
-1.000000000000000E+20
 30
-1.000000000000000E+20
  9
$PLIMMIN
 10
0.0
 20
0.0
  9
$PLIMMAX
 10
12.0
 20
9.0
  9
$UNITMODE
 70
     0
  9
$VISRETAIN
 70
     1
  9
$PLINEGEN
 70
     0
  9
$PSLTSCALE
 70
     1
  9
$TREEDEPTH
 70
  3020
  9
$CMLSTYLE
  2
Standard
  9
$CMLJUST
 70
     0
  9
$CMLSCALE
 40
1.0
  9
$PROXYGRAPHICS
 70
     1
  9
$MEASUREMENT
 70
     0
  9
$CELWEIGHT
370
    -1
  9
$ENDCAPS
280
     0
  9
$JOINSTYLE
280
     0
  9
$LWDISPLAY
290
     0
  9
$INSUNITS
 70
     1
  9
$HYPERLINKBASE
  1

  9
$STYLESHEET
  1

  9
$XEDIT
290
     1
  9
$CEPSNTYPE
380
     0
  9
$PSTYLEMODE
290
     1
  9
$FINGERPRINTGUID
  2
{E7F7769E-AACA-40AB-9EF3-61BBAFBCBA26}
  9
$VERSIONGUID
  2
{FAEB1C32-E019-11D5-929B-00C0DF256EC4}
  9
$EXTNAMES
290
     1
  9
$PSVPSCALE
 40
0.0
  9
$OLESTARTUP
290
     0
  9
$SORTENTS
280
   127
  9
$INDEXCTL
280
     0
  9
$HIDETEXT
280
     1
  9
$XCLIPFRAME
290
     0
  9
$HALOGAP
280
     0
  9
$OBSCOLOR
 70
   257
  9
$OBSLTYPE
280
     0
  9
$INTERSECTIONDISPLAY
280
     0
  9
$INTERSECTIONCOLOR
 70
   257
  9
$DIMASSOC
280
     2
  9
$PROJECTNAME
  1

  0
ENDSEC
  0
SECTION
  2
CLASSES
  0
CLASS
  1
ACDBDICTIONARYWDFLT
  2
AcDbDictionaryWithDefault
  3
ObjectDBX Classes
 90
        0
 91
        4
280
     0
281
     0
  0
CLASS
  1
VISUALSTYLE
  2
AcDbVisualStyle
  3
ObjectDBX Classes
 90
     4095
 91
        4
280
     0
281
     0
  0
ENDSEC
  0
SECTION
  2
TABLES
  0
TABLE
  2
VPORT
  5
8
330
0
100
AcDbSymbolTable
 70
     1
  0
VPORT
  5
29
330
8
100
AcDbSymbolTableRecord
100
AcDbViewportTableRecord
  2
*Active
 70
     0
 10
0.0
 20
0.0
 11
1.0
 21
1.0
 12
80.25
 22
106.4409457059851
 13
0.0
 23
0.0
 14
0.5
 24
0.5
 15
0.5
 25
0.5
 16
0.0
 26
0.0
 36
1.0
 17
0.0
 27
0.0
 37
0.0
 40
113.3818914119703
 41
0.8863849310366128
 42
50.0
 43
0.0
 44
0.0
 50
0.0
 51
0.0
 71
     0
 72
  1000
 73
     1
 74
     3
 75
     0
 76
     0
 77
     0
 78
     0
281
     0
 65
     1
110
0.0
120
0.0
130
0.0
111
1.0
121
0.0
131
0.0
112
0.0
122
1.0
132
0.0
 79
     0
146
0.0
  0
ENDTAB
  0
TABLE
  2
LTYPE
  5
5
330
0
100
AcDbSymbolTable
 70
     1
  0
LTYPE
  5
14
330
5
100
AcDbSymbolTableRecord
100
AcDbLinetypeTableRecord
  2
ByBlock
 70
     0
  3

 72
    65
 73
     0
 40
0.0
  0
LTYPE
  5
15
330
5
100
AcDbSymbolTableRecord
100
AcDbLinetypeTableRecord
  2
ByLayer
 70
     0
  3

 72
    65
 73
     0
 40
0.0
  0
LTYPE
  5
16
330
5
100
AcDbSymbolTableRecord
100
AcDbLinetypeTableRecord
  2
Continuous
 70
     0
  3
Solid line
 72
    65
 73
     0
 40
0.0
  0
ENDTAB
  0
TABLE
  2
LAYER
  5
2
330
0
100
AcDbSymbolTable
 70
     1
  0
LAYER
  5
10
330
2
100
AcDbSymbolTableRecord
100
AcDbLayerTableRecord
  2
0
 70
     0
 62
     7
  6
Continuous
370
    -3
390
F
  0
ENDTAB
  0
TABLE
  2
STYLE
  5
3
330
0
100
AcDbSymbolTable
 70
     1
  0
STYLE
  5
11
330
3
100
AcDbSymbolTableRecord
100
AcDbTextStyleTableRecord
  2
Standard
 70
     0
 40
0.0
 41
1.0
 50
0.0
 71
     0
 42
0.2
  3
txt
  4

  0
ENDTAB
  0
TABLE
  2
VIEW
  5
6
330
0
100
AcDbSymbolTable
 70
     0
  0
ENDTAB
  0
TABLE
  2
UCS
  5
7
330
0
100
AcDbSymbolTable
 70
     0
  0
ENDTAB
  0
TABLE
  2
APPID
  5
9
330
0
100
AcDbSymbolTable
 70
     1
  0
APPID
  5
12
330
9
100
AcDbSymbolTableRecord
100
AcDbRegAppTableRecord
  2
ACAD
 70
     0
  0
ENDTAB
  0
TABLE
  2
DIMSTYLE
  5
A
330
0
100
AcDbSymbolTable
 70
     1
100
AcDbDimStyleTable
  0
DIMSTYLE
105
27
330
A
100
AcDbSymbolTableRecord
100
AcDbDimStyleTableRecord
  2
Standard
 70
     0
340
11
  0
ENDTAB
  0
TABLE
  2
BLOCK_RECORD
  5
1
330
0
100
AcDbSymbolTable
 70
     1
  0
BLOCK_RECORD
  5
1F
330
1
100
AcDbSymbolTableRecord
100
AcDbBlockTableRecord
  2
*Model_Space
340
22
  0
BLOCK_RECORD
  5
1B
330
1
100
AcDbSymbolTableRecord
100
AcDbBlockTableRecord
  2
*Paper_Space
340
1E
  0
BLOCK_RECORD
  5
23
330
1
100
AcDbSymbolTableRecord
100
AcDbBlockTableRecord
  2
*Paper_Space0
340
26
  0
ENDTAB
  0
ENDSEC
  0
SECTION
  2
BLOCKS
  0
BLOCK
  5
20
330
1F
100
AcDbEntity
  8
0
100
AcDbBlockBegin
  2
*Model_Space
 70
     0
 10
0.0
 20
0.0
 30
0.0
  3
*Model_Space
  1

  0
ENDBLK
  5
21
330
1F
100
AcDbEntity
  8
0
100
AcDbBlockEnd
  0
BLOCK
  5
1C
330
1B
100
AcDbEntity
 67
     1
  8
0
100
AcDbBlockBegin
  2
*Paper_Space
 70
     0
 10
0.0
 20
0.0
 30
0.0
  3
*Paper_Space
  1

  0
ENDBLK
  5
1D
330
1B
100
AcDbEntity
 67
     1
  8
0
100
AcDbBlockEnd
  0
BLOCK
  5
24
330
23
100
AcDbEntity
  8
0
100
AcDbBlockBegin
  2
*Paper_Space0
 70
     0
 10
0.0
 20
0.0
 30
0.0
  3
*Paper_Space0
  1

  0
ENDBLK
  5
25
330
23
100
AcDbEntity
  8
0
100
AcDbBlockEnd
  0
ENDSEC
  0
SECTION
  2
ENTITIES
  0
LWPOLYLINE
  5
20000
  8
0
100
AcDbEntity
100
AcDbPolyline
 70
0
 90
6
 10
518.36194281804
 20
-1139.60107177958
 10
1464.45079849693
 20
-1400.27425709126
 10
2104.75891122109
 20
-1608.80371908956
 10
2867.73141335602
 20
-1881.11866358144
 10
3436.89418022194
 20
-2070.02182327401
 10
4094.37530746361
 20
-2276.09799748409
  0
LWPOLYLINE
  5
20001
  8
0
100
AcDbEntity
100
AcDbPolyline
 70
0
 90
3
 10
1009.72993149466
 20
-1275.06126472832
 10
987.286323689075
 20
-1395.36768151483
 10
999.552762630151
 20
-1509.44556366684
  0
LWPOLYLINE
  5
20002
  8
0
100
AcDbEntity
100
AcDbPolyline
 70
0
 90
2
 10
623.262711391908
 20
-1319.96315546873
 10
989.358537285476
 20
-1414.63926796136
  0
LWPOLYLINE
  5
20003
  8
0
100
AcDbEntity
100
AcDbPolyline
 70
0
 90
2
 10
936.873827160286
 20
-1401.86211385464
 10
944.353787395309
 20
-1494.72583693755
  0
LWPOLYLINE
  5
20004
  8
0
100
AcDbEntity
100
AcDbPolyline
 70
0
 90
11
 10
539.561302339803
 20
-1413.76733992645
 10
944.353787395309
 20
-1494.72583693755
 10
999.552762630151
 20
-1509.44556366684
 10
1310.50698978643
 20
-1587.95077288973
 10
1667.46036297174
 20
-1702.64197698879
 10
1866.78999576422
 20
-1772.56067895292
 10
2096.17240396234
 20
-1849.8392442817
 10
2352.54097783083
 20
-1944.29082412798
 10
3013.70203675482
 20
-2154.66025196744
 10
3614.75754486755
 20
-2341.11012387179
 10
3749.68837321938
 20
-2368.09628954216
  0
LWPOLYLINE
  5
20005
  8
0
100
AcDbEntity
100
AcDbPolyline
 70
0
 90
3
 10
991.051499340722
 20
-1430.38381507515
 10
1146.13670797601
 20
-1464.67306153191
 10
1162.69640054647
 20
-1465.89970542602
  0
LWPOLYLINE
  5
20006
  8
0
100
AcDbEntity
100
AcDbPolyline
 70
0
 90
3
 10
1179.86941506397
 20
-1412.54069603234
 10
1190.90921011094
 20
-1501.47237835514
 10
1195.40981286828
 20
-1558.89270850014
  0
LWPOLYLINE
  5
20007
  8
0
100
AcDbEntity
100
AcDbPolyline
 70
0
 90
3
 10
1303.05612199387
 20
-1355.83224472086
 10
1312.96027757465
 20
-1430.3270324969
 10
1317.86685315108
 20
-1485.52600773174
  0
LWPOLYLINE
  5
20008
  8
0
100
AcDbEntity
100
AcDbPolyline
 70
0
 90
3
 10
1307.44038005116
 20
-1475.71285657888
 10
1311.73363368054
 20
-1527.84522207846
 10
1306.17417112348
 20
-1586.85688573222
  0
LWPOLYLINE
  5
20009
  8
0
100
AcDbEntity
100
AcDbPolyline
 70
0
 90
3
 10
1238.38753732154
 20
-1338.02495328934
 10
1247.94815118694
 20
-1505.15231003747
 10
1249.78811702811
 20
-1535.81840739016
  0
LWPOLYLINE
  5
2000A
  8
0
100
AcDbEntity
100
AcDbPolyline
 70
0
 90
3
 10
1349.99393079975
 20
-1368.75714859494
 10
1353.4395260802
 20
-1434.00696417922
 10
1353.4395260802
 20
-1502.0857003022
  0
LWPOLYLINE
  5
2000B
  8
0
100
AcDbEntity
100
AcDbPolyline
 70
0
 90
2
 10
1120.84666629224
 20
-1540.06808766831
 10
1143.34230746804
 20
-1464.05522125843
  0
LWPOLYLINE
  5
2000C
  8
0
100
AcDbEntity
100
AcDbPolyline
 70
0
 90
3
 10
1095.17500001997
 20
-1533.58687803745
 10
1108.72406920573
 20
-1499.01909056693
 10
1116.45030959076
 20
-1458.10941668401
  0
LWPOLYLINE
  5
2000D
  8
0
100
AcDbEntity
100
AcDbPolyline
 70
0
 90
4
 10
597.213565362864
 20
-1663.38937237735
 10
938.220567924776
 20
-1751.70773275309
 10
1090.32441079412
 20
-1787.28040568221
 10
1221.57530746363
 20
-1811.19996161731
  0
LWPOLYLINE
  5
2000E
  8
0
100
AcDbEntity
100
AcDbPolyline
 70
0
 90
3
 10
610.706648198048
 20
-1775.01396674114
 10
797.769842049456
 20
-1802.0001324115
 10
864.62193427832
 20
-1807.52002993499
  0
LWPOLYLINE
  5
2000F
  8
0
100
AcDbEntity
100
AcDbPolyline
 70
0
 90
3
 10
2837.32997650582
 20
-2098.54186916093
 10
2813.75908201529
 20
-2298.17758757803
 10
2809.46582838591
 20
-2307.99073873089
  0
LWPOLYLINE
  5
20010
  8
0
100
AcDbEntity
100
AcDbPolyline
 70
0
 90
2
 10
2816.3182340045
 20
-2091.8563147287
 10
2830.22813169884
 20
-2158.69155464262
  0
LWPOLYLINE
  5
20011
  8
0
100
AcDbEntity
100
AcDbPolyline
 70
0
 90
3
 10
2863.43815972665
 20
-2324.55043130134
 10
2853.62500857379
 20
-2461.93454744139
 10
2849.94507689146
 20
-2530.01328356436
  0
LWPOLYLINE
  5
20012
  8
0
100
AcDbEntity
100
AcDbPolyline
 70
0
 90
3
 10
3065.22108030735
 20
-2320.25717767196
 10
3049.27470968395
 20
-2480.33420585301
 10
3025.9684756959
 20
-2595.63873189912
  0
LWPOLYLINE
  5
20013
  8
0
100
AcDbEntity
100
AcDbPolyline
 70
0
 90
3
 10
2550.21590713389
 20
-2007.18739254259
 10
2523.35114008532
 20
-2099.15461575907
 10
2506.17812556781
 20
-2150.06033736454
  0
LWPOLYLINE
  5
20014
  8
0
100
AcDbEntity
100
AcDbPolyline
 70
0
 90
2
 10
2540.59655594724
 20
-2040.11769922203
 10
2551.56394964979
 20
-2045.79560636539
  0
LWPOLYLINE
  5
20015
  8
0
100
AcDbEntity
100
AcDbPolyline
 70
0
 90
3
 10
2537.97209997515
 20
-2049.10210350776
 10
2504.03149875312
 20
-2037.82242105369
 10
2438.40605041837
 20
-2015.1295090127
  0
LWPOLYLINE
  5
20016
  8
0
100
AcDbEntity
100
AcDbPolyline
 70
0
 90
2
 10
2514.825044463
 20
-1995.92666351095
 10
2499.08066332328
 20
-2036.11044992375
  0
LWPOLYLINE
  5
20017
  8
0
100
AcDbEntity
100
AcDbPolyline
 70
0
 90
2
 10
2482.87189157977
 20
-2010.83625538332
 10
2500.37570971567
 20
-2032.80515216928
  0
LWPOLYLINE
  5
20018
  8
0
100
AcDbEntity
100
AcDbPolyline
 70
0
 90
3
 10
2496.50938699348
 20
-1990.0989543161
 10
2482.87189157977
 20
-2010.83625538332
 10
2470.76567330804
 20
-2026.31928515212
  0
LWPOLYLINE
  5
20019
  8
0
100
AcDbEntity
100
AcDbPolyline
 70
0
 90
2
 10
2456.49904785645
 20
-1988.14334334233
 10
2489.79178504877
 20
-2000.31380167269
  0
LWPOLYLINE
  5
2001A
  8
0
100
AcDbEntity
100
AcDbPolyline
 70
0
 90
3
 10
2621.1759906404
 20
-2150.67365931159
 10
2641.10895391965
 20
-2094.24804018264
 10
2653.68205383425
 20
-2053.76879167709
  0
LWPOLYLINE
  5
2001B
  8
0
100
AcDbEntity
100
AcDbPolyline
 70
0
 90
4
 10
2604.30963709642
 20
-2141.16716913225
 10
2615.65609311691
 20
-2106.82114009724
 10
2631.90912471384
 20
-2070.02182327401
 10
2637.42902223732
 20
-2053.76879167709
  0
LWPOLYLINE
  5
2001C
  8
0
100
AcDbEntity
100
AcDbPolyline
 70
0
 90
2
 10
2655.52201967541
 20
-2078.60833053277
 10
2673.04599703316
 20
-2046.26969387418
  0
LWPOLYLINE
  5
2001D
  8
0
100
AcDbEntity
100
AcDbPolyline
 70
0
 90
4
 10
2624.54926134919
 20
-2235.00542703149
 10
2593.57650302298
 20
-2316.57724598964
 10
2570.88359098199
 20
-2396.30909910664
 10
2548.190678941
 20
-2450.89475239443
  0
LWPOLYLINE
  5
2001E
  8
0
100
AcDbEntity
100
AcDbPolyline
 70
0
 90
3
 10
2814.47327221999
 20
-2292.12869220588
 10
2724.82739969249
 20
-2274.25803164293
 10
2695.38794623391
 20
-2269.96477801356
  0
LWPOLYLINE
  5
2001F
  8
0
100
AcDbEntity
100
AcDbPolyline
 70
0
 90
3
 10
2489.00511105031
 20
-2205.56597357291
 10
2590.81655426124
 20
-2222.73898809041
 10
2616.5760760375
 20
-2219.05905640809
  0
LWPOLYLINE
  5
20020
  8
0
100
AcDbEntity
100
AcDbPolyline
 70
0
 90
4
 10
2595.10980789061
 20
-2222.12566614336
 10
2624.54926134919
 20
-2235.00542703149
 10
2652.14874896662
 20
-2253.4050854431
 10
2694.46796331333
 20
-2264.44488049007
  0
LWPOLYLINE
  5
20021
  8
0
100
AcDbEntity
100
AcDbPolyline
 70
0
 90
3
 10
2750.28026049522
 20
-2158.03352267624
 10
2780.33303590086
 20
-2142.08715205284
 10
2809.46582838591
 20
-2135.64727160877
  0
LWPOLYLINE
  5
20022
  8
0
100
AcDbEntity
100
AcDbPolyline
 70
0
 90
3
 10
2753.04020925697
 20
-2139.3272032911
 10
2785.23961147729
 20
-2120.0075619589
 10
2818.70253084321
 20
-2103.31254932818
  0
LWPOLYLINE
  5
20023
  8
0
100
AcDbEntity
100
AcDbPolyline
 70
0
 90
5
 10
2514.825044463
 20
-1995.92666351095
 10
2546.65737407336
 20
-1910.86477801356
 10
2573.03021779668
 20
-1854.43915888461
 10
2582.84336894954
 20
-1832.97289073773
 10
2593.15661243044
 20
-1783.11929733469
  0
LWPOLYLINE
  5
20024
  8
0
100
AcDbEntity
100
AcDbPolyline
 70
0
 90
3
 10
2721.20845499552
 20
-2061.59411231675
 10
2730.6539581895
 20
-2025.86264308614
 10
2733.10724597772
 20
-2001.94308715105
  0
LWPOLYLINE
  5
20025
  8
0
100
AcDbEntity
100
AcDbPolyline
 70
0
 90
5
 10
2551.59157381778
 20
-1900.30788553714
 10
2594.18982497003
 20
-1942.1441973133
 10
2626.08256621683
 20
-1973.42361661305
 10
2656.13534162246
 20
-1994.88988475993
 10
2664.72184888122
 20
-2000.10312130989
  0
LWPOLYLINE
  5
20026
  8
0
100
AcDbEntity
100
AcDbPolyline
 70
0
 90
4
 10
2923.2327129031
 20
-1899.53935351733
 10
2958.19640054646
 20
-1828.98629808188
 10
3015.23534162246
 20
-1776.24061063525
 10
3055.10126818096
 20
-1751.7077327531
  0
LWPOLYLINE
  5
20027
  8
0
100
AcDbEntity
100
AcDbPolyline
 70
0
 90
9
 10
3779.4344876515
 20
-1879.89201968734
 10
3443.33406066601
 20
-1752.32105470015
 10
3166.1125405977
 20
-1651.73625538333
 10
2756.41347996576
 20
-1519.25871481971
 10
2438.71271139189
 20
-1400.27425709127
 10
2183.57078141752
 20
-1310.72925282142
 10
1940.69529038421
 20
-1233.45068749264
 10
1723.57932112717
 20
-1151.26554658743
 10
975.326545721534
 20
-941.509440695031
  0
LWPOLYLINE
  5
20028
  8
0
100
AcDbEntity
100
AcDbPolyline
 70
0
 90
13
 10
4059.9041321466
 20
-2092.25495418463
 10
3682.529620017
 20
-1978.02353121595
 10
3471.54687023049
 20
-1909.33147314592
 10
3045.48553825569
 20
-1757.6251050148
 10
2814.06574298882
 20
-1659.09611874797
 10
2497.59161830906
 20
-1563.41789500758
 10
2369.40733137482
 20
-1511.28552950801
 10
2287.22219046961
 20
-1476.939500473
 10
2175.59759610582
 20
-1437.68689586155
 10
2050.47991890684
 20
-1394.14103762073
 10
1876.29648594356
 20
-1343.84863796232
 10
1740.13901369762
 20
-1307.04932113909
 10
1665.31373615706
 20
-1273.92993599819
  0
LWPOLYLINE
  5
20029
  8
0
100
AcDbEntity
100
AcDbPolyline
 70
0
 90
3
 10
1729.99976822415
 20
-1302.56145838854
 10
1736.4590820153
 20
-1446.88672506736
 10
1730.4997711363
 20
-1486.91855852554
  0
LWPOLYLINE
  5
2002A
  8
0
100
AcDbEntity
100
AcDbPolyline
 70
0
 90
3
 10
1740.13901369762
 20
-1307.04932113909
 10
1729.71254059771
 20
-1237.74394112202
 10
1724.19264307422
 20
-1201.55794624584
  0
LWPOLYLINE
  5
2002B
  8
0
100
AcDbEntity
100
AcDbPolyline
 70
0
 90
3
 10
1742.59230148584
 20
-1216.27767297513
 10
1752.4054526387
 20
-1266.57007263354
 10
1757.92535016218
 20
-1295.39620414507
  0
LWPOLYLINE
  5
2002C
  8
0
100
AcDbEntity
100
AcDbPolyline
 70
0
 90
3
 10
1752.4054526387
 20
-1266.57007263354
 10
1810.67103760881
 20
-1276.3832237864
 10
1870.06275569532
 20
-1296.68666524522
  0
LWPOLYLINE
  5
2002D
  8
0
100
AcDbEntity
100
AcDbPolyline
 70
0
 90
3
 10
1854.83021779668
 20
-1234.06400943969
 10
1871.38991036713
 20
-1302.14274556266
 10
1880.58628621522
 20
-1345.08724226611
  0
LWPOLYLINE
  5
2002E
  8
0
100
AcDbEntity
100
AcDbPolyline
 70
0
 90
5
 10
1873.37675890244
 20
-1311.42077114407
 10
1943.76190011948
 20
-1336.7954355712
 10
1964.92150729284
 20
-1348.1418915917
 10
2003.56078995723
 20
-1359.18168663867
 10
2013.98726305714
 20
-1360.40833053277
  0
LWPOLYLINE
  5
2002F
  8
0
100
AcDbEntity
100
AcDbPolyline
 70
0
 90
2
 10
1943.76190011948
 20
-1336.7954355712
 10
1933.02876604604
 20
-1353.04846716813
  0
LWPOLYLINE
  5
20030
  8
0
100
AcDbEntity
100
AcDbPolyline
 70
0
 90
2
 10
1918.30812322082
 20
-1224.97644907486
 10
1871.38991036713
 20
-1302.14274556266
  0
LWPOLYLINE
  5
20031
  8
0
100
AcDbEntity
100
AcDbPolyline
 70
0
 90
2
 10
1787.2451506514
 20
-1505.39885453621
 10
1827.0773996925
 20
-1420.82054231757
  0
LWPOLYLINE
  5
20032
  8
0
100
AcDbEntity
100
AcDbPolyline
 70
0
 90
2
 10
1773.71839029882
 20
-1366.23488902979
 10
1826.15741677192
 20
-1305.20935529793
  0
LWPOLYLINE
  5
20033
  8
0
100
AcDbEntity
100
AcDbPolyline
 70
0
 90
2
 10
1751.63880020488
 20
-1447.19338604089
 10
1799.47791207508
 20
-1370.52814265916
  0
LWPOLYLINE
  5
20034
  8
0
100
AcDbEntity
100
AcDbPolyline
 70
0
 90
3
 10
1750.41215631077
 20
-1302.44940653619
 10
1757.92535016218
 20
-1295.39620414507
 10
1779.70037743708
 20
-1271.16711259959
  0
LWPOLYLINE
  5
20035
  8
0
100
AcDbEntity
100
AcDbPolyline
 70
0
 90
2
 10
1671.29362514083
 20
-1381.56793770613
 10
1732.57387047188
 20
-1360.07654518786
  0
LWPOLYLINE
  5
20036
  8
0
100
AcDbEntity
100
AcDbPolyline
 70
0
 90
3
 10
1642.87637492734
 20
-1083.90235273602
 10
1689.48884290343
 20
-1224.55751926036
 10
1702.98192573861
 20
-1262.17459867966
  0
LWPOLYLINE
  5
20037
  8
0
100
AcDbEntity
100
AcDbPolyline
 70
0
 90
3
 10
1684.17338602896
 20
-1267.89893685216
 10
1702.98192573861
 20
-1262.17459867966
 10
1734.65689103828
 20
-1270.60932934462
  0
LWPOLYLINE
  5
20038
  8
0
100
AcDbEntity
100
AcDbPolyline
 70
0
 90
2
 10
1710.46448397826
 20
-1264.1671300949
 10
1714.7453602851
 20
-1295.80950733355
  0
LWPOLYLINE
  5
20039
  8
0
100
AcDbEntity
100
AcDbPolyline
 70
0
 90
3
 10
1528.24495367603
 20
-1096.50787964621
 10
1507.53666527747
 20
-1237.64172079751
 10
1475.54683941395
 20
-1403.88791026347
  0
LWPOLYLINE
  5
2003A
  8
0
100
AcDbEntity
100
AcDbPolyline
 70
0
 90
3
 10
1511.18110413981
 20
-1212.80366341763
 10
1588.49516228857
 20
-1249.90815973858
 10
1633.00057961471
 20
-1271.76263052882
  0
LWPOLYLINE
  5
2003B
  8
0
100
AcDbEntity
100
AcDbPolyline
 70
0
 90
2
 10
1587.26851839446
 20
-1186.94043984106
 10
1597.18543499082
 20
-1115.83381785085
  0
LWPOLYLINE
  5
2003C
  8
0
100
AcDbEntity
100
AcDbPolyline
 70
0
 90
5
 10
1619.16844936082
 20
-1450.66123151054
 10
1643.08081557636
 20
-1362.9638386455
 10
1640.21864649011
 20
-1321.25794624584
 10
1631.63213923135
 20
-1262.37903932868
 10
1621.00122548242
 20
-1199.00243813312
  0
LWPOLYLINE
  5
2003D
  8
0
100
AcDbEntity
100
AcDbPolyline
 70
0
 90
2
 10
1632.85878312546
 20
-1330.66221610067
 10
1666.79593086244
 20
-1310.21815119887
  0
LWPOLYLINE
  5
2003E
  8
0
100
AcDbEntity
100
AcDbPolyline
 70
0
 90
2
 10
1638.56678689847
 20
-1309.93090904602
 10
1683.56006408191
 20
-1337.20431686924
  0
LWPOLYLINE
  5
2003F
  8
0
100
AcDbEntity
100
AcDbPolyline
 70
0
 90
3
 10
1661.07159268994
 20
-1272.19219048154
 10
1683.56006408191
 20
-1337.20431686924
 10
1696.12134157
 20
-1372.86069124801
  0
LWPOLYLINE
  5
20040
  8
0
100
AcDbEntity
100
AcDbPolyline
 70
0
 90
3
 10
1579.0624394866
 20
-1437.59988729863
 10
1534.72727159685
 20
-1596.84394112201
 10
1514.7141891415
 20
-1653.56373900553
  0
LWPOLYLINE
  5
20041
  8
0
100
AcDbEntity
100
AcDbPolyline
 70
0
 90
4
 10
1479.53335700568
 20
-1642.25993211653
 10
1471.75955169933
 20
-1614.01695563952
 10
1469.30626391112
 20
-1581.71533309469
 10
1470.53290780522
 20
-1568.63113155754
  0
LWPOLYLINE
  5
20042
  8
0
100
AcDbEntity
100
AcDbPolyline
 70
0
 90
2
 10
1554.35357390258
 20
-1812.73326648495
 10
1605.32747024663
 20
-1682.67831558055
  0
LWPOLYLINE
  5
20043
  8
0
100
AcDbEntity
100
AcDbPolyline
 70
0
 90
4
 10
1856.50586425722
 20
-1768.95332205508
 10
1819.71753632785
 20
-1689.25111447812
 10
1804.99780959856
 20
-1610.74590525523
 10
1802.95340310838
 20
-1547.36930405967
  0
LWPOLYLINE
  5
20044
  8
0
100
AcDbEntity
100
AcDbPolyline
 70
0
 90
2
 10
1646.70556773822
 20
-1459.62925856831
 10
1622.5873854298
 20
-1688.22402716002
  0
LWPOLYLINE
  5
20045
  8
0
100
AcDbEntity
100
AcDbPolyline
 70
0
 90
3
 10
1654.12061062333
 20
-1587.43967126719
 10
1701.55084119549
 20
-1533.87622122449
 10
1729.35476946193
 20
-1515.47656281288
  0
LWPOLYLINE
  5
20046
  8
0
100
AcDbEntity
100
AcDbPolyline
 70
0
 90
2
 10
1738.75903931675
 20
-1568.2222502595
 10
1756.73364956683
 20
-1495.4621587807
  0
LWPOLYLINE
  5
20047
  8
0
100
AcDbEntity
100
AcDbPolyline
 70
0
 90
3
 10
1640.60696096431
 20
-1517.43252028951
 10
1692.14657134066
 20
-1498.30354829537
 10
1718.62189247913
 20
-1483.05028386708
  0
LWPOLYLINE
  5
20048
  8
0
100
AcDbEntity
100
AcDbPolyline
 70
0
 90
3
 10
1425.46430378633
 20
-1624.88722944983
 10
1420.64938944485
 20
-1749.76554658743
 10
1426.78260891539
 20
-1791.88032028512
  0
LWPOLYLINE
  5
20049
  8
0
100
AcDbEntity
100
AcDbPolyline
 70
0
 90
3
 10
1460.71975665236
 20
-1753.44547826975
 10
1482.39046544826
 20
-1682.30013241151
 10
1497.86501205209
 20
-1648.14999997508
  0
LWPOLYLINE
  5
2004A
  8
0
100
AcDbEntity
100
AcDbPolyline
 70
0
 90
3
 10
1404.70301882145
 20
-1757.53429125011
 10
1410.83623829199
 20
-1685.5711827958
 10
1414.14767329932
 20
-1621.25112996346
  0
LWPOLYLINE
  5
2004B
  8
0
100
AcDbEntity
100
AcDbPolyline
 70
0
 90
3
 10
1361.77048252768
 20
-1786.97374470869
 10
1377.30797185305
 20
-1748.53890269332
 10
1387.93888560198
 20
-1700.29090952509
  0
LWPOLYLINE
  5
2004C
  8
0
100
AcDbEntity
100
AcDbPolyline
 70
0
 90
2
 10
1377.30797185305
 20
-1748.53890269332
 10
1405.0865293239
 20
-1753.034434688
  0
LWPOLYLINE
  5
2004D
  8
0
100
AcDbEntity
100
AcDbPolyline
 70
0
 90
2
 10
1578.48493981567
 20
-1674.05365374105
 10
1558.85126818097
 20
-1725.64155000331
  0
LWPOLYLINE
  5
2004E
  8
0
100
AcDbEntity
100
AcDbPolyline
 70
0
 90
3
 10
1533.09174640471
 20
-1663.08271140382
 10
1534.72727159685
 20
-1738.31687024242
 10
1533.50062770275
 20
-1759.57869774029
  0
LWPOLYLINE
  5
2004F
  8
0
100
AcDbEntity
100
AcDbPolyline
 70
0
 90
2
 10
1534.54996737787
 20
-1730.16087616899
 10
1558.44238688293
 20
-1731.77476947385
  0
LWPOLYLINE
  5
20050
  8
0
100
AcDbEntity
100
AcDbPolyline
 70
0
 90
3
 10
1534.30911948998
 20
-1719.08187332632
 10
1508.14998722452
 20
-1706.01524769759
 10
1502.01676775399
 20
-1703.56195990937
  0
LWPOLYLINE
  5
20051
  8
0
100
AcDbEntity
100
AcDbPolyline
 70
0
 90
2
 10
1511.42103760881
 20
-1673.71362515276
 10
1511.25822911822
 20
-1707.56783104693
  0
LWPOLYLINE
  5
20052
  8
0
100
AcDbEntity
100
AcDbPolyline
 70
0
 90
2
 10
1501.60788645595
 20
-1680.25572592133
 10
1501.54446120824
 20
-1649.33222848402
  0
LWPOLYLINE
  5
20053
  8
0
100
AcDbEntity
100
AcDbPolyline
 70
0
 90
3
 10
1491.38585400505
 20
-1684.75342019972
 10
1501.60788645595
 20
-1680.25572592133
 10
1511.42103760881
 20
-1673.71362515276
  0
LWPOLYLINE
  5
20054
  8
0
100
AcDbEntity
100
AcDbPolyline
 70
0
 90
2
 10
1490.56809140898
 20
-1704.37972250545
 10
1491.79473530309
 20
-1732.59253206992
  0
LWPOLYLINE
  5
20055
  8
0
100
AcDbEntity
100
AcDbPolyline
 70
0
 90
2
 10
1490.78333269606
 20
-1709.33027210827
 10
1503.84968391759
 20
-1704.29512637482
  0
LWPOLYLINE
  5
20056
  8
0
100
AcDbEntity
100
AcDbPolyline
 70
0
 90
2
 10
1504.87893684024
 20
-1686.7978266899
 10
1503.84968391759
 20
-1704.29512637482
  0
LWPOLYLINE
  5
20057
  8
0
100
AcDbEntity
100
AcDbPolyline
 70
0
 90
3
 10
1457.85758756611
 20
-1723.59714351313
 10
1459.49311275826
 20
-1673.71362515276
 10
1459.90199405629
 20
-1653.678441549
  0
LWPOLYLINE
  5
20058
  8
0
100
AcDbEntity
100
AcDbPolyline
 70
0
 90
3
 10
1440.27569175057
 20
-1703.97084120741
 10
1445.182267327
 20
-1672.48698125865
 10
1448.04443641325
 20
-1649.58962856864
  0
LWPOLYLINE
  5
20059
  8
0
100
AcDbEntity
100
AcDbPolyline
 70
0
 90
2
 10
1502.01676775399
 20
-1743.22344581885
 10
1495.06578568738
 20
-1793.10696417923
  0
LWPOLYLINE
  5
2005A
  8
0
100
AcDbEntity
100
AcDbPolyline
 70
0
 90
2
 10
1383.85007262162
 20
-1654.49620414507
 10
1389.7670242179
 20
-1613.41748498369
  0
LWPOLYLINE
  5
2005B
  8
0
100
AcDbEntity
100
AcDbPolyline
 70
0
 90
2
 10
1397.3431554568
 20
-1681.89125111347
 10
1398.16091805288
 20
-1639.36759611774
  0
LWPOLYLINE
  5
2005C
  8
0
100
AcDbEntity
100
AcDbPolyline
 70
0
 90
3
 10
1337.80260572702
 20
-1596.72101375037
 10
1332.73991036714
 20
-1644.27417169417
 10
1332.73991036714
 20
-1644.27417169417
  0
LWPOLYLINE
  5
2005D
  8
0
100
AcDbEntity
100
AcDbPolyline
 70
0
 90
3
 10
1358.4994321434
 20
-1764.48527331672
 10
1363.81488901786
 20
-1710.92182327402
 10
1363.81488901786
 20
-1696.61097784276
  0
LWPOLYLINE
  5
2005E
  8
0
100
AcDbEntity
100
AcDbPolyline
 70
0
 90
2
 10
1289.28423366579
 20
-1582.59275951016
 10
1254.64358244229
 20
-1845.44377032782
  0
LWPOLYLINE
  5
2005F
  8
0
100
AcDbEntity
100
AcDbPolyline
 70
0
 90
7
 10
1279.04482057494
 20
-1660.28876077017
 10
1228.47517936799
 20
-1645.90969688632
 10
1190.85809994869
 20
-1621.37681900417
 10
1163.05417168225
 20
-1595.20841592987
 10
1112.35289072581
 20
-1577.21763881629
 10
1066.55818534579
 20
-1564.95119987522
 10
1010.13256621684
 20
-1535.51174641663
  0
LWPOLYLINE
  5
20060
  8
0
100
AcDbEntity
100
AcDbPolyline
 70
0
 90
4
 10
1010.83296981809
 20
-1512.29342662553
 10
1010.13256621684
 20
-1535.51174641663
 10
1011.76809140898
 20
-1598.47946631416
 10
1009.31480362077
 20
-1623.01234419631
  0
LWPOLYLINE
  5
20061
  8
0
100
AcDbEntity
100
AcDbPolyline
 70
0
 90
3
 10
1120.12163538849
 20
-1723.59714351313
 10
1153.64990182743
 20
-1690.88663967026
 10
1173.68508543119
 20
-1663.08271140382
  0
LWPOLYLINE
  5
20062
  8
0
100
AcDbEntity
100
AcDbPolyline
 70
0
 90
3
 10
1136.47688730992
 20
-1748.94778399136
 10
1179.81830490172
 20
-1694.97545265062
 10
1205.57782667798
 20
-1652.04291635686
  0
LWPOLYLINE
  5
20063
  8
0
100
AcDbEntity
100
AcDbPolyline
 70
0
 90
2
 10
1180.02375766525
 20
-1803.62748291574
 10
1223.56860379156
 20
-1735.45470115617
  0
LWPOLYLINE
  5
20064
  8
0
100
AcDbEntity
100
AcDbPolyline
 70
0
 90
2
 10
1198.62684461137
 20
-1849.12370201014
 10
1215.17600449395
 20
-1810.03373350601
  0
LWPOLYLINE
  5
20065
  8
0
100
AcDbEntity
100
AcDbPolyline
 70
0
 90
2
 10
1130.75254913742
 20
-1892.87400089998
 10
1159.78312129797
 20
-1816.00431686924
  0
LWPOLYLINE
  5
20066
  8
0
100
AcDbEntity
100
AcDbPolyline
 70
0
 90
2
 10
1160.192002596
 20
-1875.29210508444
 10
1174.91172932529
 20
-1839.31055085728
  0
LWPOLYLINE
  5
20067
  8
0
100
AcDbEntity
100
AcDbPolyline
 70
0
 90
3
 10
1018.58277970958
 20
-2033.66546119033
 10
1053.74657134067
 20
-1949.43591379494
 10
1067.92112300591
 20
-1905.00414607504
  0
LWPOLYLINE
  5
20068
  8
0
100
AcDbEntity
100
AcDbPolyline
 70
0
 90
5
 10
1235.83504273264
 20
-2015.1295090127
 10
1112.08030319378
 20
-2011.31328356437
 10
1012.31326647303
 20
-1987.87075581031
 10
944.166383467053
 20
-1976.42207946531
 10
784.97526476509
 20
-1936.07912472577
  0
LWPOLYLINE
  5
20069
  8
0
100
AcDbEntity
100
AcDbPolyline
 70
0
 90
2
 10
1114.26100344997
 20
-2120.89347143798
 10
1262.00344580693
 20
-2110.53514522107
  0
LWPOLYLINE
  5
2006A
  8
0
100
AcDbEntity
100
AcDbPolyline
 70
0
 90
2
 10
790.427015405568
 20
-1894.10064479409
 10
797.769842049456
 20
-1802.0001324115
  0
LWPOLYLINE
  5
2006B
  8
0
100
AcDbEntity
100
AcDbPolyline
 70
0
 90
2
 10
1067.92112300591
 20
-1655.85914180519
 10
1124.07415460283
 20
-1686.38894539187
  0
LWPOLYLINE
  5
2006C
  8
0
100
AcDbEntity
100
AcDbPolyline
 70
0
 90
4
 10
1211.30216485049
 20
-1688.56964564806
 10
1179.81830490172
 20
-1694.97545265062
 10
1144.79080703665
 20
-1688.02447058401
 10
1116.98687877021
 20
-1673.84991891877
  0
LWPOLYLINE
  5
2006D
  8
0
100
AcDbEntity
100
AcDbPolyline
 70
0
 90
2
 10
1121.62086681462
 20
-1629.96332626292
 10
1152.96843299737
 20
-1657.22207946531
  0
LWPOLYLINE
  5
2006E
  8
0
100
AcDbEntity
100
AcDbPolyline
 70
0
 90
2
 10
975.241362117779
 20
-1695.65692148068
 10
1096.81540140044
 20
-1729.45777545165
  0
LWPOLYLINE
  5
2006F
  8
0
100
AcDbEntity
100
AcDbPolyline
 70
0
 90
2
 10
1593.92378703853
 20
-1711.77370687157
 10
1634.08542701957
 20
-1765.98450474285
  0
LWPOLYLINE
  5
20070
  8
0
100
AcDbEntity
100
AcDbPolyline
 70
0
 90
3
 10
1582.80769343634
 20
-1740.13534118582
 10
1592.92470968396
 20
-1772.2540179794
 10
1594.28764734408
 20
-1791.06255768905
  0
LWPOLYLINE
  5
20071
  8
0
100
AcDbEntity
100
AcDbPolyline
 70
0
 90
2
 10
1473.1258254268
 20
-1975.93830708746
 10
1488.5236849188
 20
-1886.1956063654
  0
LWPOLYLINE
  5
20072
  8
0
100
AcDbEntity
100
AcDbPolyline
 70
0
 90
2
 10
1536.49909055501
 20
-1892.73770713397
 10
1539.22496587525
 20
-1978.33019218948
  0
LWPOLYLINE
  5
20073
  8
0
100
AcDbEntity
100
AcDbPolyline
 70
0
 90
5
 10
1515.23726305715
 20
-1981.60124257376
 10
1514.6920879931
 20
-2022.48937237735
 10
1505.42411190428
 20
-2091.72660551142
 10
1502.15306152
 20
-2153.87656281287
 10
1499.97236126381
 20
-2171.86733992645
  0
LWPOLYLINE
  5
20074
  8
0
100
AcDbEntity
100
AcDbPolyline
 70
0
 90
2
 10
1439.73051668652
 20
-1959.2490649478
 10
1515.03352495331
 20
-1996.88160036119
  0
LWPOLYLINE
  5
20075
  8
0
100
AcDbEntity
100
AcDbPolyline
 70
0
 90
2
 10
1456.08576860796
 20
-2009.95034590425
 10
1499.92359868566
 20
-1989.33044339616
  0
LWPOLYLINE
  5
20076
  8
0
100
AcDbEntity
100
AcDbPolyline
 70
0
 90
2
 10
1450.08884290343
 20
-1993.04991891877
 10
1481.82200733811
 20
-1980.28420748734
  0
LWPOLYLINE
  5
20077
  8
0
100
AcDbEntity
100
AcDbPolyline
 70
0
 90
6
 10
1437.54981643033
 20
-1975.05914180519
 10
1450.08884290343
 20
-1993.04991891877
 10
1457.24147523589
 20
-2009.40673875139
 10
1482.7993467463
 20
-2054.10952609212
 10
1500.51753632785
 20
-2072.91806580177
 10
1557.48833052085
 20
-2089.00073019118
  0
LWPOLYLINE
  5
20078
  8
0
100
AcDbEntity
100
AcDbPolyline
 70
0
 90
4
 10
1606.82667381718
 20
-2002.31789500758
 10
1611.73324939361
 20
-2073.1906533338
 10
1621.54640054647
 20
-2136.43096076334
 10
1637.02376947739
 20
-2172.3429960844
  0
LWPOLYLINE
  5
20079
  8
0
100
AcDbEntity
100
AcDbPolyline
 70
0
 90
2
 10
1610.09772420147
 20
-2222.02344581885
 10
1648.80515374886
 20
-2150.60551242859
  0
LWPOLYLINE
  5
2007A
  8
0
100
AcDbEntity
100
AcDbPolyline
 70
0
 90
3
 10
1624.88781699205
 20
-2194.73468306439
 10
1631.63213923136
 20
-2221.4101238718
 10
1653.43914179327
 20
-2254.39321524669
  0
LWPOLYLINE
  5
2007B
  8
0
100
AcDbEntity
100
AcDbPolyline
 70
0
 90
3
 10
1396.38909909472
 20
-2197.96759611774
 10
1485.25263453452
 20
-2119.46238689486
 10
1489.6140350469
 20
-2115.64616144652
  0
LWPOLYLINE
  5
2007C
  8
0
100
AcDbEntity
100
AcDbPolyline
 70
0
 90
3
 10
1676.06390695125
 20
-2319.26904786838
 10
1604.10079849694
 20
-2274.83728014848
 10
1580.65827074288
 20
-2261.75307861134
  0
LWPOLYLINE
  5
2007D
  8
0
100
AcDbEntity
100
AcDbPolyline
 70
0
 90
3
 10
1480.34605895809
 20
-2196.87724598965
 10
1550.67364222025
 20
-2242.12677630562
 10
1577.3872203586
 20
-2263.93377886753
  0
LWPOLYLINE
  5
2007E
  8
0
100
AcDbEntity
100
AcDbPolyline
 70
0
 90
3
 10
1531.52857912693
 20
-2229.80863493549
 10
1539.49755340727
 20
-2256.84650303491
 10
1540.31531600335
 20
-2289.55700687778
  0
LWPOLYLINE
  5
2007F
  8
0
100
AcDbEntity
100
AcDbPolyline
 70
0
 90
3
 10
1477.0750085738
 20
-2254.39321524669
 10
1540.31531600335
 20
-2289.55700687778
 10
1570.572532058
 20
-2306.18484633123
  0
LWPOLYLINE
  5
20080
  8
0
100
AcDbEntity
100
AcDbPolyline
 70
0
 90
2
 10
1444.36450473093
 20
-2139.90645179665
 10
1429.32133984226
 20
-2063.6531677058
  0
LWPOLYLINE
  5
20081
  8
0
100
AcDbEntity
100
AcDbPolyline
 70
0
 90
3
 10
1396.93427415877
 20
-2078.30166955924
 10
1429.32133984226
 20
-2063.6531677058
 10
1480.03460380551
 20
-2049.27376675733
  0
LWPOLYLINE
  5
20082
  8
0
100
AcDbEntity
100
AcDbPolyline
 70
0
 90
3
 10
1410.56365075996
 20
-2085.66153292389
 10
1407.29260037568
 20
-2168.52814265916
 10
1406.06537160398
 20
-2189.41923267398
  0
LWPOLYLINE
  5
20083
  8
0
100
AcDbEntity
100
AcDbPolyline
 70
0
 90
3
 10
1407.19497843326
 20
-2170.18995896715
 10
1416.83316399651
 20
-2154.89876605796
 10
1423.37526476509
 20
-2135.27246375224
  0
LWPOLYLINE
  5
20084
  8
0
100
AcDbEntity
100
AcDbPolyline
 70
0
 90
3
 10
1440.84614642449
 20
-2122.07201486402
 10
1462.35528184451
 20
-2089.75034590425
 10
1464.80856963272
 20
-2085.93412045591
  0
LWPOLYLINE
  5
20085
  8
0
100
AcDbEntity
100
AcDbPolyline
 70
0
 90
3
 10
1460.67973168438
 20
-2092.26818665161
 10
1470.80549533725
 20
-2084.29859526377
 10
1485.95957692122
 20
-2057.46423197012
  0
LWPOLYLINE
  5
20086
  8
0
100
AcDbEntity
100
AcDbPolyline
 70
0
 90
3
 10
1437.49469182475
 20
-2105.08360706531
 10
1444.09191719891
 20
-2080.48236981544
 10
1450.31675952303
 20
-2057.70005930619
  0
LWPOLYLINE
  5
20087
  8
0
100
AcDbEntity
100
AcDbPolyline
 70
0
 90
2
 10
1599.19422292051
 20
-2326.08373616898
 10
1654.80207945339
 20
-2346.25521353875
  0
LWPOLYLINE
  5
20088
  8
0
100
AcDbEntity
100
AcDbPolyline
 70
0
 90
3
 10
1630.15097920323
 20
-2337.31314776173
 10
1638.71941506398
 20
-2357.70388988375
 10
1645.26151583255
 20
-2374.05914180519
  0
LWPOLYLINE
  5
20089
  8
0
100
AcDbEntity
100
AcDbPolyline
 70
0
 90
2
 10
1620.18346288635
 20
-2362.88305299221
 10
1633.06460035536
 20
-2344.24684003881
  0
LWPOLYLINE
  5
2008A
  8
0
100
AcDbEntity
100
AcDbPolyline
 70
0
 90
3
 10
1639.38982804196
 20
-2340.6644948895
 10
1656.43760464553
 20
-2318.17869774029
 10
1660.39035463829
 20
-2309.59181670545
  0
LWPOLYLINE
  5
2008B
  8
0
100
AcDbEntity
100
AcDbPolyline
 70
0
 90
2
 10
1594.53407209339
 20
-2269.49771192325
 10
1610.98363368054
 20
-2302.3686208829
  0
LWPOLYLINE
  5
2008C
  8
0
100
AcDbEntity
100
AcDbPolyline
 70
0
 90
2
 10
1587.26851839446
 20
-2305.91225879921
 10
1603.01857660228
 20
-2286.45216835675
  0
LWPOLYLINE
  5
2008D
  8
0
100
AcDbEntity
100
AcDbPolyline
 70
0
 90
2
 10
1699.84716912034
 20
-2408.13258330818
 10
1700.93751924844
 20
-2361.52011533209
  0
LWPOLYLINE
  5
2008E
  8
0
100
AcDbEntity
100
AcDbPolyline
 70
0
 90
2
 10
1753.81950046107
 20
-2416.58279680092
 10
1757.63572590941
 20
-2393.68544411091
  0
LWPOLYLINE
  5
2008F
  8
0
100
AcDbEntity
100
AcDbPolyline
 70
0
 90
2
 10
1733.6480230913
 20
-2386.32558074626
 10
1732.55767296321
 20
-2353.6150769034
  0
LWPOLYLINE
  5
20090
  8
0
100
AcDbEntity
100
AcDbPolyline
 70
0
 90
3
 10
1700.45970610996
 20
-2381.94662700182
 10
1733.6480230913
 20
-2386.32558074626
 10
1757.63572590941
 20
-2393.68544411091
  0
LWPOLYLINE
  5
20091
  8
0
100
AcDbEntity
100
AcDbPolyline
 70
0
 90
4
 10
1674.22394111009
 20
-2306.45743386326
 10
1676.06390695125
 20
-2319.26904786838
 10
1691.3969556276
 20
-2353.06990183935
 10
1700.71432114483
 20
-2371.06183426119
  0
LWPOLYLINE
  5
20092
  8
0
100
AcDbEntity
100
AcDbPolyline
 70
0
 90
2
 10
1578.00054230565
 20
-2327.99184889315
 10
1607.13533468437
 20
-2328.9643355343
  0
LWPOLYLINE
  5
20093
  8
0
100
AcDbEntity
100
AcDbPolyline
 70
0
 90
2
 10
1592.46795730352
 20
-2328.47475495387
 10
1597.8994321434
 20
-2363.42822805626
  0
LWPOLYLINE
  5
20094
  8
0
100
AcDbEntity
100
AcDbPolyline
 70
0
 90
3
 10
1528.66219900932
 20
-2168.52814265916
 10
1563.28081557636
 20
-2205.05487195036
 10
1577.4553672416
 20
-2215.14061063525
  0
LWPOLYLINE
  5
20095
  8
0
100
AcDbEntity
100
AcDbPolyline
 70
0
 90
3
 10
1609.0476136821
 20
-2034.39813750094
 10
1589.72180618268
 20
-1972.81029466599
 10
1579.90865502982
 20
-1909.56998723645
  0
LWPOLYLINE
  5
20096
  8
0
100
AcDbEntity
100
AcDbPolyline
 70
0
 90
3
 10
1596.38654804375
 20
-1994.04961800537
 10
1577.72795477363
 20
-1990.52848424755
 10
1549.65143897517
 20
-1985.07673360707
  0
LWPOLYLINE
  5
20097
  8
0
100
AcDbEntity
100
AcDbPolyline
 70
0
 90
3
 10
1133.81402401606
 20
-1640.56607165548
 10
1119.29149946456
 20
-1675.02482358648
 10
1114.78970327996
 20
-1681.34108836196
  0
LWPOLYLINE
  5
20098
  8
0
100
AcDbEntity
100
AcDbPolyline
 70
0
 90
2
 10
1089.78368119396
 20
-1571.17231483455
 10
1070.30626391112
 20
-1617.35615290682
  0
LWPOLYLINE
  5
20099
  8
0
100
AcDbEntity
100
AcDbPolyline
 70
0
 90
3
 10
1082.1855337282
 20
-1589.18864662597
 10
1111.19439371471
 20
-1601.54607604943
 10
1145.54042274972
 20
-1615.17545265062
  0
LWPOLYLINE
  5
2009A
  8
0
100
AcDbEntity
100
AcDbPolyline
 70
0
 90
3
 10
1010.81336032529
 20
-1608.02677715114
 10
1055.04136211778
 20
-1614.35769005455
 10
1063.76416314255
 20
-1614.08510252253
  0
LWPOLYLINE
  5
2009B
  8
0
100
AcDbEntity
100
AcDbPolyline
 70
0
 90
3
 10
1010.99151787788
 20
-1568.58138536669
 10
1031.05365929968
 20
-1575.37767297513
 10
1052.04289926552
 20
-1578.3761358274
  0
LWPOLYLINE
  5
2009C
  8
0
100
AcDbEntity
100
AcDbPolyline
 70
0
 90
3
 10
976.611799632959
 20
-1760.68632726549
 10
975.241362117779
 20
-1695.65692148068
 10
973.265102510608
 20
-1680.86904786839
  0
LWPOLYLINE
  5
2009D
  8
0
100
AcDbEntity
100
AcDbPolyline
 70
0
 90
2
 10
1241.93022471526
 20
-1399.95402899862
 10
1183.15750216902
 20
-1387.56486341066
  0
LWPOLYLINE
  5
2009E
  8
0
100
AcDbEntity
100
AcDbPolyline
 70
0
 90
3
 10
1178.05731932887
 20
-1321.41228456673
 10
1183.15750216902
 20
-1387.56486341066
 10
1181.52197697688
 20
-1403.92011533209
  0
LWPOLYLINE
  5
2009F
  8
0
100
AcDbEntity
100
AcDbPolyline
 70
0
 90
5
 10
622.71753632786
 20
-1224.01234419631
 10
697.406520102412
 20
-1241.45794624584
 10
778.092429581489
 20
-1257.81319816728
 10
815.709509000789
 20
-1262.17459867966
 10
846.239312587467
 20
-1261.62942361561
  0
LWPOLYLINE
  5
200A0
  8
0
100
AcDbEntity
100
AcDbPolyline
 70
0
 90
3
 10
788.975391668648
 20
-1214.27378274724
 10
794.893425674461
 20
-1259.76113974328
 10
793.57342533557
 20
-1286.66458173678
  0
LWPOLYLINE
  5
200A1
  8
0
100
AcDbEntity
100
AcDbPolyline
 70
0
 90
2
 10
542.304214380807
 20
-1318.05504274456
 10
622.666648644478
 20
-1340.60750503309
  0
LWPOLYLINE
  5
200A2
  8
0
100
AcDbEntity
100
AcDbPolyline
 70
0
 90
2
 10
543.93973957295
 20
-1304.69825367539
 10
513.409935986272
 20
-1294.33992745848
  0
LWPOLYLINE
  5
200A3
  8
0
100
AcDbEntity
100
AcDbPolyline
 70
0
 90
4
 10
571.743667839389
 20
-1195.66324086583
 10
540.849218992543
 20
-1303.64968419275
 10
542.304214380807
 20
-1318.05504274456
 10
539.337460777016
 20
-1390.69492346243
  0
LWPOLYLINE
  5
200A4
  8
0
100
AcDbEntity
100
AcDbPolyline
 70
0
 90
2
 10
563.89595122157
 20
-1223.09363815166
 10
622.470969581469
 20
-1237.5361876298
  0
LWPOLYLINE
  5
200A5
  8
0
100
AcDbEntity
100
AcDbPolyline
 70
0
 90
2
 10
511.229235730081
 20
-1383.74863796233
 10
606.089696874402
 20
-1407.19116571638
  0
LWPOLYLINE
  5
200A6
  8
0
100
AcDbEntity
100
AcDbPolyline
 70
0
 90
5
 10
625.767163670071
 20
-1169.2086029215
 10
624.051321137273
 20
-1224.19820308776
 10
622.470969581469
 20
-1237.5361876298
 10
623.262711391908
 20
-1319.96315546873
 10
620.089294522698
 20
-1429.87293836303
  0
LWPOLYLINE
  5
200A7
  8
0
100
AcDbEntity
100
AcDbPolyline
 70
0
 90
2
 10
819.798321981147
 20
-1344.49603335088
 10
927.197809598568
 20
-1342.31533309469
  0
LWPOLYLINE
  5
200A8
  8
0
100
AcDbEntity
100
AcDbPolyline
 70
0
 90
3
 10
1464.45079849693
 20
-1400.27425709126
 10
1455.74503419293
 20
-1515.13582839785
 10
1456.29020925698
 20
-1567.47263454644
  0
LWPOLYLINE
  5
200A9
  8
0
100
AcDbEntity
100
AcDbPolyline
 70
0
 90
3
 10
1452.10167743817
 20
-1633.44597321769
 10
1463.3774850896
 20
-1604.54453890169
 10
1462.83231002555
 20
-1580.55683608359
  0
LWPOLYLINE
  5
200AA
  8
0
100
AcDbEntity
100
AcDbPolyline
 70
0
 90
2
 10
1375.05912471385
 20
-1567.47263454644
 10
1408.85997868482
 20
-1494.41917596403
  0
LWPOLYLINE
  5
200AB
  8
0
100
AcDbEntity
100
AcDbPolyline
 70
0
 90
3
 10
1330.89994452598
 20
-1479.15427417069
 10
1353.4395260802
 20
-1502.0857003022
 10
1371.24289926552
 20
-1516.77135358999
  0
LWPOLYLINE
  5
200AC
  8
0
100
AcDbEntity
100
AcDbPolyline
 70
0
 90
2
 10
1310.42186559087
 20
-1541.7691610392
 10
1342.34862087098
 20
-1538.57835615191
  0
LWPOLYLINE
  5
200AD
  8
0
100
AcDbEntity
100
AcDbPolyline
 70
0
 90
2
 10
1293.28286510668
 20
-1534.76213070357
 10
1311.32383679402
 20
-1532.19506629189
  0
LWPOLYLINE
  5
200AE
  8
0
100
AcDbEntity
100
AcDbPolyline
 70
0
 90
2
 10
1311.08860619474
 20
-1520.01274546522
 10
1337.44204529455
 20
-1514.5906533338
  0
LWPOLYLINE
  5
200AF
  8
0
100
AcDbEntity
100
AcDbPolyline
 70
0
 90
2
 10
1313.45434247645
 20
-1671.05589671553
 10
1317.81855239078
 20
-1590.3000206681
  0
LWPOLYLINE
  5
200B0
  8
0
100
AcDbEntity
100
AcDbPolyline
 70
0
 90
3
 10
793.790828551035
 20
-1282.23360196795
 10
834.245461178414
 20
-1274.71362515276
 10
877.314291238192
 20
-1253.99697271894
  0
LWPOLYLINE
  5
200B1
  8
0
100
AcDbEntity
100
AcDbPolyline
 70
0
 90
3
 10
803.580914270595
 20
-1293.67499744872
 10
870.22701540557
 20
-1284.52677630562
 10
900.756818992248
 20
-1273.07809996062
  0
LWPOLYLINE
  5
200B2
  8
0
100
AcDbEntity
100
AcDbPolyline
 70
0
 90
3
 10
751.583973441459
 20
-1252.43986246322
 10
793.57342533557
 20
-1286.66458173678
 10
852.78141335604
 20
-1328.14078142945
  0
LWPOLYLINE
  5
200B3
  8
0
100
AcDbEntity
100
AcDbPolyline
 70
0
 90
3
 10
1129.59589150676
 20
-1308.0678334273
 10
1146.04016655843
 20
-1187.93992745848
 10
1090.40239262966
 20
-973.768407615179
  0
LWPOLYLINE
  5
200B4
  8
0
100
AcDbEntity
100
AcDbPolyline
 70
0
 90
4
 10
1122.98819014506
 20
-1099.2038678497
 10
1164.21266869336
 20
-1111.61541849179
 10
1230.36057646449
 20
-1121.79201968735
 10
1245.62547825783
 20
-1118.88441934576
  0
LWPOLYLINE
  5
200B5
  8
0
100
AcDbEntity
100
AcDbPolyline
 70
0
 90
3
 10
1064.99615886869
 20
-1290.2795012516
 10
1082.07295904349
 20
-1237.36913326549
 10
1102.42616143461
 20
-1180.30747656181
  0
LWPOLYLINE
  5
200B6
  8
0
100
AcDbEntity
100
AcDbPolyline
 70
0
 90
3
 10
740.983993733851
 20
-1201.05876012752
 10
745.88166954733
 20
-1131.24172079751
 10
751.696870230507
 20
-1067.27451328257
  0
LWPOLYLINE
  5
200B7
  8
0
100
AcDbEntity
100
AcDbPolyline
 70
0
 90
3
 10
969.403445806937
 20
-1117.06716913227
 10
969.039995764238
 20
-1174.49227587864
 10
967.949645636142
 20
-1208.6565798923
  0
LWPOLYLINE
  5
200B8
  8
0
100
AcDbEntity
100
AcDbPolyline
 70
0
 90
4
 10
1287.17434972882
 20
-1351.42977879121
 10
1290.46612727577
 20
-1258.90354829538
 10
1275.20122548243
 20
-1197.11704103662
 10
1238.87610360003
 20
-1120.17001451867
  0
LWPOLYLINE
  5
200B9
  8
0
100
AcDbEntity
100
AcDbPolyline
 70
0
 90
3
 10
1334.06744698804
 20
-1364.35010118833
 10
1326.08423146022
 20
-1284.34505128427
 10
1320.8030139207
 20
-1231.14550519144
  0
LWPOLYLINE
  5
200BA
  8
0
100
AcDbEntity
100
AcDbPolyline
 70
0
 90
5
 10
1284.9055691936
 20
-1236.3965274866
 10
1301.00617851402
 20
-1231.28134505029
 10
1318.08833052085
 20
-1218.92404359854
 10
1328.62838175911
 20
-1203.6591418052
 10
1357.704385175
 20
-1158.95478655328
  0
LWPOLYLINE
  5
200BB
  8
0
100
AcDbEntity
100
AcDbPolyline
 70
0
 90
3
 10
1306.1384387455
 20
-1227.56864615943
 10
1336.26083265578
 20
-1234.91584547727
 10
1388.59763880437
 20
-1250.90764735601
  0
LWPOLYLINE
  5
200BC
  8
0
100
AcDbEntity
100
AcDbPolyline
 70
0
 90
2
 10
1267.76916047642
 20
-1181.37379577095
 10
1318.08833052085
 20
-1218.92404359854
  0
LWPOLYLINE
  5
200BD
  8
0
100
AcDbEntity
100
AcDbPolyline
 70
0
 90
3
 10
1286.47566768878
 20
-1242.75168806233
 10
1308.00259183597
 20
-1265.71823659597
 10
1318.17919303153
 20
-1278.80243813312
  0
LWPOLYLINE
  5
200BE
  8
0
100
AcDbEntity
100
AcDbPolyline
 70
0
 90
3
 10
1512.56728947895
 20
-1203.3563514189
 10
1357.704385175
 20
-1158.95478655328
 10
1278.92658842009
 20
-1110.161618321
  0
LWPOLYLINE
  5
200BF
  8
0
100
AcDbEntity
100
AcDbPolyline
 70
0
 90
3
 10
1378.52952125158
 20
-1376.60061069838
 10
1419.94520498712
 20
-1266.44513668137
 10
1453.12229916177
 20
-1186.31256287982
  0
LWPOLYLINE
  5
200C0
  8
0
100
AcDbEntity
100
AcDbPolyline
 70
0
 90
3
 10
1861.17355682316
 20
-2267.38655427317
 10
1936.04426561906
 20
-2175.07024342774
 10
1978.20447057209
 20
-2117.64513668137
  0
LWPOLYLINE
  5
200C1
  8
0
100
AcDbEntity
100
AcDbPolyline
 70
0
 90
2
 10
2040.71787791624
 20
-2185.97374470869
 10
2126.4920879931
 20
-2050.77032882484
  0
LWPOLYLINE
  5
200C2
  8
0
100
AcDbEntity
100
AcDbPolyline
 70
0
 90
2
 10
2065.43248081974
 20
-2233.9491503449
 10
2123.58448765151
 20
-2133.6369385601
  0
LWPOLYLINE
  5
200C3
  8
0
100
AcDbEntity
100
AcDbPolyline
 70
0
 90
2
 10
2071.24768150292
 20
-2267.38655427317
 10
2107.95613581547
 20
-2213.23249791109
  0
LWPOLYLINE
  5
200C4
  8
0
100
AcDbEntity
100
AcDbPolyline
 70
0
 90
3
 10
2094.14503419293
 20
-2273.20175495635
 10
2172.65024341581
 20
-2157.62464137821
 10
2215.90079849694
 20
-2091.11328356437
  0
LWPOLYLINE
  5
200C5
  8
0
100
AcDbEntity
100
AcDbPolyline
 70
0
 90
4
 10
2170.83299320232
 20
-2133.6369385601
 10
2221.35254913742
 20
-2057.31242959341
 10
2270.41830490172
 20
-1993.70867212116
 10
2303.12880874459
 20
-1958.09056793671
  0
LWPOLYLINE
  5
200C6
  8
0
100
AcDbEntity
100
AcDbPolyline
 70
0
 90
3
 10
2270.78175494442
 20
-2052.22412899563
 10
2303.85570882999
 20
-2009.7004739999
 10
2317.30336040984
 20
-1987.16657135259
  0
LWPOLYLINE
  5
200C7
  8
0
100
AcDbEntity
100
AcDbPolyline
 70
0
 90
2
 10
2159.92949192137
 20
-2272.83830491365
 10
2196.63794623392
 20
-2223.77254914935
  0
LWPOLYLINE
  5
200C8
  8
0
100
AcDbEntity
100
AcDbPolyline
 70
0
 90
2
 10
2191.18619559344
 20
-2268.84035444397
 10
2234.43675067457
 20
-2203.78279680093
  0
LWPOLYLINE
  5
200C9
  8
0
100
AcDbEntity
100
AcDbPolyline
 70
0
 90
5
 10
1934.95391549096
 20
-2409.858971011
 10
1995.65007262162
 20
-2307.36605897001
 10
2031.63162684878
 20
-2224.86289927744
 10
2042.18162577163
 20
-2183.66648114003
 10
2030.90472676338
 20
-2091.84018364977
  0
LWPOLYLINE
  5
200CA
  8
0
100
AcDbEntity
100
AcDbPolyline
 70
0
 90
4
 10
1991.28867210924
 20
-1819.79782668991
 10
2023.81745093076
 20
-1941.19014095122
 10
2036.71992744656
 20
-1988.98382156608
 10
2051.9848292399
 20
-2040.23027758658
  0
LWPOLYLINE
  5
200CB
  8
0
100
AcDbEntity
100
AcDbPolyline
 70
0
 90
2
 10
2048.84510446355
 20
-2029.68977298028
 10
2032.48768304048
 20
-2104.72998730136
  0
LWPOLYLINE
  5
200CC
  8
0
100
AcDbEntity
100
AcDbPolyline
 70
0
 90
2
 10
2022.11770975897
 20
-1934.84697277939
 10
2118.13273701103
 20
-1934.1028651186
  0
LWPOLYLINE
  5
200CD
  8
0
100
AcDbEntity
100
AcDbPolyline
 70
0
 90
4
 10
2043.17921298711
 20
-2010.66856588079
 10
2093.41813410753
 20
-1962.45196844909
 10
2144.30114008533
 20
-1915.20346289828
 10
2158.11224170787
 20
-1899.93856110494
  0
LWPOLYLINE
  5
200CE
  8
0
100
AcDbEntity
100
AcDbPolyline
 70
0
 90
2
 10
2018.42127771524
 20
-1921.05246660504
 10
2039.62752778815
 20
-1912.29586255669
  0
LWPOLYLINE
  5
200CF
  8
0
100
AcDbEntity
100
AcDbPolyline
 70
0
 90
2
 10
2006.10854337838
 20
-1875.10326807419
 10
2059.98073017926
 20
-1884.6736593116
  0
LWPOLYLINE
  5
200D0
  8
0
100
AcDbEntity
100
AcDbPolyline
 70
0
 90
3
 10
2108.68303590087
 20
-2049.67997869674
 10
2169.01574298883
 20
-1981.35137066941
 10
2202.4531469171
 20
-1931.19526477701
  0
LWPOLYLINE
  5
200D1
  8
0
100
AcDbEntity
100
AcDbPolyline
 70
0
 90
3
 10
2116.31548679754
 20
-2123.82378740724
 10
2152.66049106739
 20
-2055.85862942262
 10
2156.65844153708
 20
-2048.95307861134
  0
LWPOLYLINE
  5
200D2
  8
0
100
AcDbEntity
100
AcDbPolyline
 70
0
 90
3
 10
2150.4797908112
 20
-2077.30218194183
 10
2188.64204529455
 20
-2027.14607604943
 10
2250.0651025106
 20
-1962.81541849179
  0
LWPOLYLINE
  5
200D3
  8
0
100
AcDbEntity
100
AcDbPolyline
 70
0
 90
2
 10
2178.51417969286
 20
-2040.45698512593
 10
2159.28577509216
 20
-1992.37085238371
  0
LWPOLYLINE
  5
200D4
  8
0
100
AcDbEntity
100
AcDbPolyline
 70
0
 90
2
 10
2162.20361443972
 20
-1989.06631143587
 10
2141.86154390831
 20
-1917.46880220551
  0
LWPOLYLINE
  5
200D5
  8
0
100
AcDbEntity
100
AcDbPolyline
 70
0
 90
3
 10
2136.91264880636
 20
-1922.06420480018
 10
2120.67688730992
 20
-1881.03915888462
 10
2109.40993598627
 20
-1864.68390696318
  0
LWPOLYLINE
  5
200D6
  8
0
100
AcDbEntity
100
AcDbPolyline
 70
0
 90
3
 10
1890.97646032444
 20
-2266.65965418777
 10
1999.64802309131
 20
-2260.4810034619
 10
2017.70483516047
 20
-2256.7960478961
  0
LWPOLYLINE
  5
200D7
  8
0
100
AcDbEntity
100
AcDbPolyline
 70
0
 90
2
 10
2053.43862941069
 20
-2346.25521353876
 10
2083.60498295467
 20
-2295.73565760366
  0
LWPOLYLINE
  5
200D8
  8
0
100
AcDbEntity
100
AcDbPolyline
 70
0
 90
2
 10
1992.37902223734
 20
-2214.32284803918
 10
2026.67294274104
 20
-2236.23281132247
  0
LWPOLYLINE
  5
200D9
  8
0
100
AcDbEntity
100
AcDbPolyline
 70
0
 90
3
 10
1644.92078141752
 20
-1934.829765204
 10
1617.66202821513
 20
-1998.79697271894
 10
1607.64765092672
 20
-2014.17645325657
  0
LWPOLYLINE
  5
200DA
  8
0
100
AcDbEntity
100
AcDbPolyline
 70
0
 90
3
 10
1620.20610900362
 20
-1992.8268631353
 10
1664.18363368055
 20
-2012.24462429879
 10
1683.08303590087
 20
-2018.05982498197
  0
LWPOLYLINE
  5
200DB
  8
0
100
AcDbEntity
100
AcDbPolyline
 70
0
 90
3
 10
1676.5409351323
 20
-1983.8955209683
 10
1717.61078995723
 20
-2012.60807434149
 10
1772.12829636202
 20
-2037.68612728769
  0
LWPOLYLINE
  5
200DC
  8
0
100
AcDbEntity
100
AcDbPolyline
 70
0
 90
2
 10
3047.15403879056
 20
-2165.0371995377
 10
3038.38824512376
 20
-2232.13190013141
  0
LWPOLYLINE
  5
200DD
  8
0
100
AcDbEntity
100
AcDbPolyline
 70
0
 90
3
 10
3038.75169516645
 20
-2277.56315546873
 10
3052.9262468317
 20
-2215.41319816728
 10
3059.24939506177
 20
-2168.78922842183
  0
LWPOLYLINE
  5
200DE
  8
0
100
AcDbEntity
100
AcDbPolyline
 70
0
 90
2
 10
2986.05143897516
 20
-2221.95529893585
 10
2976.601737865
 20
-2282.28800602381
  0
LWPOLYLINE
  5
200DF
  8
0
100
AcDbEntity
100
AcDbPolyline
 70
0
 90
3
 10
2940.98363368055
 20
-2224.49944923474
 10
2980.96313837739
 20
-2238.67400089998
 10
2983.35295886925
 20
-2239.18405653514
  0
LWPOLYLINE
  5
200E0
  8
0
100
AcDbEntity
100
AcDbPolyline
 70
0
 90
3
 10
3029.66544409899
 20
-2221.22839885045
 10
2988.23213923136
 20
-2212.86904786839
 10
2966.42513666944
 20
-2205.60004701442
  0
LWPOLYLINE
  5
200E1
  8
0
100
AcDbEntity
100
AcDbPolyline
 70
0
 90
4
 10
2980.81775836031
 20
-2210.39758757804
 10
2982.41693854818
 20
-2178.34129381203
 10
2983.50728867628
 20
-2164.16674214678
 10
2983.55426485001
 20
-2145.06777908863
  0
LWPOLYLINE
  5
200E2
  8
0
100
AcDbEntity
100
AcDbPolyline
 70
0
 90
3
 10
2874.47227586671
 20
-2134.7272886882
 10
2953.70438517499
 20
-2167.07434248837
 10
2982.60507739381
 20
-2175.89548881881
  0
LWPOLYLINE
  5
200E3
  8
0
100
AcDbEntity
100
AcDbPolyline
 70
0
 90
2
 10
2824.75418695528
 20
-2205.05360050795
 10
2909.36347996577
 20
-2196.51379594695
  0
LWPOLYLINE
  5
200E4
  8
0
100
AcDbEntity
100
AcDbPolyline
 70
0
 90
2
 10
2784.33666527747
 20
-2199.42139628854
 10
2828.18994739141
 20
-2175.9541319557
  0
LWPOLYLINE
  5
200E5
  8
0
100
AcDbEntity
100
AcDbPolyline
 70
0
 90
2
 10
2786.15391549096
 20
-2227.04359953363
 10
2820.28535187468
 20
-2242.90278362496
  0
LWPOLYLINE
  5
200E6
  8
0
100
AcDbEntity
100
AcDbPolyline
 70
0
 90
2
 10
3216.38482627051
 20
-2217.53328055189
 10
3208.84631514937
 20
-2307.36605897001
  0
LWPOLYLINE
  5
200E7
  8
0
100
AcDbEntity
100
AcDbPolyline
 70
0
 90
5
 10
3055.24390526544
 20
-2420.41266559261
 10
3166.68611019634
 20
-2457.83437664721
 10
3229.92641762589
 20
-2476.73377886753
 10
3303.70677629369
 20
-2496.36008117325
 10
3335.32693000847
 20
-2505.08288219802
  0
LWPOLYLINE
  5
200E8
  8
0
100
AcDbEntity
100
AcDbPolyline
 70
0
 90
3
 10
3197.94281386842
 20
-2465.10337750118
 10
3198.66971395382
 20
-2425.12387280434
 10
3201.2138642527
 20
-2393.14026904687
  0
LWPOLYLINE
  5
200E9
  8
0
100
AcDbEntity
100
AcDbPolyline
 70
0
 90
3
 10
3231.87271422621
 20
-2477.25151293855
 10
3248.82581984621
 20
-2439.66187451228
 10
3254.64102052939
 20
-2429.84872335942
  0
LWPOLYLINE
  5
200EA
  8
0
100
AcDbEntity
100
AcDbPolyline
 70
0
 90
3
 10
3220.11326647303
 20
-2376.42156708273
 10
3217.20566613144
 20
-2429.12182327402
 10
3212.11635166453
 20
-2471.41123041931
  0
LWPOLYLINE
  5
200EB
  8
0
100
AcDbEntity
100
AcDbPolyline
 70
0
 90
2
 10
3199.32362554738
 20
-2416.90326991377
 10
3217.84649909591
 20
-2417.50672579301
  0
LWPOLYLINE
  5
200EC
  8
0
100
AcDbEntity
100
AcDbPolyline
 70
0
 90
2
 10
3198.41868599967
 20
-2438.93041028226
 10
3215.98288210613
 20
-2439.28248672549
  0
LWPOLYLINE
  5
200ED
  8
0
100
AcDbEntity
100
AcDbPolyline
 70
0
 90
2
 10
3198.18111026125
 20
-2451.99707589534
 10
3214.20998131491
 20
-2454.01431826698
  0
LWPOLYLINE
  5
200EE
  8
0
100
AcDbEntity
100
AcDbPolyline
 70
0
 90
5
 10
3211.02701540557
 20
-2575.22874043884
 10
3216.11531600335
 20
-2524.34573446104
 10
3222.18724598291
 20
-2474.42092297423
 10
3223.38431685732
 20
-2458.9247267753
 10
3232.47056792478
 20
-2438.20807434149
  0
LWPOLYLINE
  5
200EF
  8
0
100
AcDbEntity
100
AcDbPolyline
 70
0
 90
4
 10
3256.45827074288
 20
-2448.38467553705
 10
3254.28679510707
 20
-2430.44647875959
 10
3256.09482070019
 20
-2402.95342019973
 10
3257.18517082828
 20
-2390.59611874798
  0
LWPOLYLINE
  5
200F0
  8
0
100
AcDbEntity
100
AcDbPolyline
 70
0
 90
3
 10
3256.09482070019
 20
-2402.95342019973
 10
3266.27142189574
 20
-2382.96366785131
 10
3270.26937236543
 20
-2376.05811704003
  0
LWPOLYLINE
  5
200F1
  8
0
100
AcDbEntity
100
AcDbPolyline
 70
0
 90
2
 10
3219.15036255223
 20
-2393.87420064715
 10
3245.91821950463
 20
-2409.1320709256
  0
LWPOLYLINE
  5
200F2
  8
0
100
AcDbEntity
100
AcDbPolyline
 70
0
 90
3
 10
3218.17911732456
 20
-2411.47802039866
 10
3232.10711788208
 20
-2423.48834761219
 10
3249.1889009041
 20
-2439.0491752271
  0
LWPOLYLINE
  5
200F3
  8
0
100
AcDbEntity
100
AcDbPolyline
 70
0
 90
3
 10
3108.61385710365
 20
-2438.33401700455
 10
3107.08030319378
 20
-2416.40107177957
 10
3107.08030319378
 20
-2400.40926990084
  0
LWPOLYLINE
  5
200F4
  8
0
100
AcDbEntity
100
AcDbPolyline
 70
0
 90
4
 10
3200.6347133955
 20
-2400.42102268035
 10
3165.59576006825
 20
-2389.86921866258
 10
3128.523855713
 20
-2373.87741678384
 10
3108.17065332188
 20
-2358.6125149905
  0
LWPOLYLINE
  5
200F5
  8
0
100
AcDbEntity
100
AcDbPolyline
 70
0
 90
3
 10
3076.9139496498
 20
-2347.70901370955
 10
3108.17065332188
 20
-2358.6125149905
 10
3132.88525622538
 20
-2360.7932152467
  0
LWPOLYLINE
  5
200F6
  8
0
100
AcDbEntity
100
AcDbPolyline
 70
0
 90
3
 10
2859.96102555784
 20
-2373.23030966467
 10
2975.14793769421
 20
-2412.40312130989
 10
3052.41189315024
 20
-2448.84171028749
  0
LWPOLYLINE
  5
200F7
  8
0
100
AcDbEntity
100
AcDbPolyline
 70
0
 90
3
 10
3261.18445716055
 20
-2392.95592000972
 10
3339.68833052085
 20
-2433.8466738291
 10
3409.83418876167
 20
-2470.91857818436
  0
LWPOLYLINE
  5
200F8
  8
0
100
AcDbEntity
100
AcDbPolyline
 70
0
 90
4
 10
3411.28798893246
 20
-2484.0027797215
 10
3344.41318107593
 20
-2455.65367639102
 10
3306.97782667798
 20
-2429.12182327402
 10
3285.05340764885
 20
-2405.38867442764
  0
LWPOLYLINE
  5
200F9
  8
0
100
AcDbEntity
100
AcDbPolyline
 70
0
 90
2
 10
3314.24682753195
 20
-2474.55307861134
 10
3331.93159786156
 20
-2446.80750576335
  0
LWPOLYLINE
  5
200FA
  8
0
100
AcDbEntity
100
AcDbPolyline
 70
0
 90
3
 10
3453.0847438428
 20
-2293.19150730477
 10
3455.26544409899
 20
-2404.77067041322
 10
3444.36194281803
 20
-2489.45453036198
  0
LWPOLYLINE
  5
200FB
  8
0
100
AcDbEntity
100
AcDbPolyline
 70
0
 90
3
 10
3415.64938944485
 20
-2442.93292489657
 10
3451.9943937147
 20
-2465.83027758658
 10
3477.0724466609
 20
-2473.09927844055
  0
LWPOLYLINE
  5
200FC
  8
0
100
AcDbEntity
100
AcDbPolyline
 70
0
 90
2
 10
3426.5528907258
 20
-2401.49962002893
 10
3455.19429986621
 20
-2401.1304571691
  0
LWPOLYLINE
  5
200FD
  8
0
100
AcDbEntity
100
AcDbPolyline
 70
0
 90
2
 10
3430.89134906
 20
-2438.34768319933
 10
3444.71769059323
 20
-2401.26549155312
  0
LWPOLYLINE
  5
200FE
  8
0
100
AcDbEntity
100
AcDbPolyline
 70
0
 90
2
 10
3417.46663965834
 20
-2432.02942361561
 10
3449.79660395044
 20
-2447.24532890027
  0
LWPOLYLINE
  5
200FF
  8
0
100
AcDbEntity
100
AcDbPolyline
 70
0
 90
2
 10
3373.48918449182
 20
-2378.3296798069
 10
3453.5544611502
 20
-2317.22537619991
  0
LWPOLYLINE
  5
20100
  8
0
100
AcDbEntity
100
AcDbPolyline
 70
0
 90
2
 10
3454.32270784595
 20
-2356.53399879959
 10
3516.68850131504
 20
-2339.07707519546
  0
LWPOLYLINE
  5
20101
  8
0
100
AcDbEntity
100
AcDbPolyline
 70
0
 90
2
 10
3523.95750216902
 20
-2363.79167809896
 10
3598.37100894476
 20
-2336.02695354472
  0
LWPOLYLINE
  5
20102
  8
0
100
AcDbEntity
100
AcDbPolyline
 70
0
 90
3
 10
3688.51453264921
 20
-2355.86152142812
 10
3689.69072163955
 20
-2429.2126857847
 10
3683.14862087098
 20
-2496.81439372663
  0
LWPOLYLINE
  5
20103
  8
0
100
AcDbEntity
100
AcDbPolyline
 70
0
 90
3
 10
3673.97653094127
 20
-2352.95392108653
 10
3752.5675790264
 20
-2227.497912087
 10
3829.61898807849
 20
-2103.1979974841
  0
LWPOLYLINE
  5
20104
  8
0
100
AcDbEntity
100
AcDbPolyline
 70
0
 90
2
 10
3737.30267723306
 20
-2018.15068749264
 10
3667.10665454654
 20
-2142.17797194291
  0
LWPOLYLINE
  5
20105
  8
0
100
AcDbEntity
100
AcDbPolyline
 70
0
 90
2
 10
3590.46885998285
 20
-2287.83061917496
 10
3685.93557842187
 20
-2148.07957494862
  0
LWPOLYLINE
  5
20106
  8
0
100
AcDbEntity
100
AcDbPolyline
 70
0
 90
2
 10
3696.20289893707
 20
-2357.39919468569
 10
3733.66817680608
 20
-2296.55342019973
  0
LWPOLYLINE
  5
20107
  8
0
100
AcDbEntity
100
AcDbPolyline
 70
0
 90
2
 10
3713.11730477034
 20
-2360.78207585235
 10
3738.75647740386
 20
-2324.17562344482
  0
LWPOLYLINE
  5
20108
  8
0
100
AcDbEntity
100
AcDbPolyline
 70
0
 90
2
 10
3722.84264012084
 20
-2159.64745995874
 10
3743.11787791624
 20
-2127.18570030221
  0
LWPOLYLINE
  5
20109
  8
0
100
AcDbEntity
100
AcDbPolyline
 70
0
 90
2
 10
3753.54583812951
 20
-2169.27085037937
 10
3779.46288218609
 20
-2122.09739970443
  0
LWPOLYLINE
  5
2010A
  8
0
100
AcDbEntity
100
AcDbPolyline
 70
0
 90
2
 10
3652.3792110963
 20
-2348.63445711754
 10
3682.78517082828
 20
-2310.72797186497
  0
LWPOLYLINE
  5
2010B
  8
0
100
AcDbEntity
100
AcDbPolyline
 70
0
 90
2
 10
3629.87326614458
 20
-2344.1332681272
 10
3652.982267327
 20
-2307.09347143799
  0
LWPOLYLINE
  5
2010C
  8
0
100
AcDbEntity
100
AcDbPolyline
 70
0
 90
2
 10
3688.96382155416
 20
-2203.1467592262
 10
3714.07029783265
 20
-2156.89791983856
  0
LWPOLYLINE
  5
2010D
  8
0
100
AcDbEntity
100
AcDbPolyline
 70
0
 90
2
 10
3699.86732283511
 20
-2109.37664820998
 10
3730.76057646449
 20
-2063.58194282996
  0
LWPOLYLINE
  5
2010E
  8
0
100
AcDbEntity
100
AcDbPolyline
 70
0
 90
3
 10
3427.6432408539
 20
-2466.64804018265
 10
3506.87535016218
 20
-2446.29483779153
 10
3543.94725451744
 20
-2422.30713497343
  0
LWPOLYLINE
  5
2010F
  8
0
100
AcDbEntity
100
AcDbPolyline
 70
0
 90
3
 10
3552.6700555422
 20
-2447.74863796232
 10
3630.44836467969
 20
-2407.76913326548
 10
3671.15476946193
 20
-2387.41593087437
  0
LWPOLYLINE
  5
20110
  8
0
100
AcDbEntity
100
AcDbPolyline
 70
0
 90
5
 10
3641.71531600334
 20
-2520.43864650203
 10
3687.45494184081
 20
-2452.31574370506
 10
3742.82235633705
 20
-2366.72308616569
 10
3825.62103760881
 20
-2257.30081558828
 10
3872.09594356807
 20
-2206.42834611384
  0
LWPOLYLINE
  5
20111
  8
0
100
AcDbEntity
100
AcDbPolyline
 70
0
 90
2
 10
3909.21454742948
 20
-2101.7441973133
 10
4037.14896245936
 20
-2160.62310423047
  0
LWPOLYLINE
  5
20112
  8
0
100
AcDbEntity
100
AcDbPolyline
 70
0
 90
3
 10
4038.4092301446
 20
-2085.55647721516
 10
4037.14896245936
 20
-2160.62310423047
 10
4034.74979016163
 20
-2257.40940250884
  0
LWPOLYLINE
  5
20113
  8
0
100
AcDbEntity
100
AcDbPolyline
 70
0
 90
2
 10
4051.35864004446
 20
-2089.74312853617
 10
4057.65265588379
 20
-1972.63140909811
  0
LWPOLYLINE
  5
20114
  8
0
100
AcDbEntity
100
AcDbPolyline
 70
0
 90
2
 10
2241.70575152854
 20
-2125.00500004601
 10
2397.26236980352
 20
-2170.07280534063
  0
LWPOLYLINE
  5
20115
  8
0
100
AcDbEntity
100
AcDbPolyline
 70
0
 90
3
 10
2399.44307005971
 20
-2129.36640055839
 10
2397.26236980352
 20
-2170.07280534063
 10
2396.53546971812
 20
-2186.79150730477
  0
LWPOLYLINE
  5
20116
  8
0
100
AcDbEntity
100
AcDbPolyline
 70
0
 90
3
 10
2397.65482651099
 20
-2162.74694680113
 10
2437.60532454306
 20
-2183.88390696318
 10
2468.49857817243
 20
-2200.96605897001
  0
LWPOLYLINE
  5
20117
  8
0
100
AcDbEntity
100
AcDbPolyline
 70
0
 90
3
 10
2471.50174213036
 20
-2163.78833665185
 10
2468.49857817243
 20
-2200.96605897001
 10
2464.13717766005
 20
-2222.40961148922
  0
LWPOLYLINE
  5
20118
  8
0
100
AcDbEntity
100
AcDbPolyline
 70
0
 90
3
 10
2492.12283094784
 20
-2066.48954317155
 10
2447.05502565322
 20
-2086.11584547727
 10
2414.70797185305
 20
-2101.74419731331
  0
LWPOLYLINE
  5
20119
  8
0
100
AcDbEntity
100
AcDbPolyline
 70
0
 90
2
 10
2484.98766999588
 20
-2069.59679068288
 10
2489.21523060625
 20
-2150.80995307761
  0
LWPOLYLINE
  5
2011A
  8
0
100
AcDbEntity
100
AcDbPolyline
 70
0
 90
3
 10
2413.98107176765
 20
-2153.3541033765
 10
2446.32812556782
 20
-2130.09330064379
 10
2459.04887706227
 20
-2117.37254914934
  0
LWPOLYLINE
  5
2011B
  8
0
100
AcDbEntity
100
AcDbPolyline
 70
0
 90
2
 10
2423.31076207899
 20
-2146.64511259082
 10
2440.51292488465
 20
-2153.3541033765
  0
LWPOLYLINE
  5
2011C
  8
0
100
AcDbEntity
100
AcDbPolyline
 70
0
 90
3
 10
2435.76291077497
 20
-2137.69075847236
 10
2470.31582838593
 20
-2162.80380448666
 10
2489.57868064895
 20
-2178.7956063654
  0
LWPOLYLINE
  5
2011D
  8
0
100
AcDbEntity
100
AcDbPolyline
 70
0
 90
5
 10
2499.2555380358
 20
-2180.34026904687
 10
2572.67244666091
 20
-2200.69347143798
 10
2616.5760760375
 20
-2219.05905640809
 10
2652.63145605459
 20
-2231.22327502466
 10
2679.89020925698
 20
-2249.03232711689
  0
LWPOLYLINE
  5
2011E
  8
0
100
AcDbEntity
100
AcDbPolyline
 70
0
 90
3
 10
2770.75271993161
 20
-2263.20687878214
 10
2771.84307005971
 20
-2195.24172079751
 10
2768.57201967542
 20
-2177.43266870528
  0
LWPOLYLINE
  5
2011F
  8
0
100
AcDbEntity
100
AcDbPolyline
 70
0
 90
3
 10
2340.42786937653
 20
-2451.11055085728
 10
2294.63316399652
 20
-2519.07570884191
 10
2274.2799616054
 20
-2546.3344620443
  0
LWPOLYLINE
  5
20120
  8
0
100
AcDbEntity
100
AcDbPolyline
 70
0
 90
3
 10
2302.62906493588
 20
-2572.5028651186
 10
2312.80566613144
 20
-2544.15376178811
 10
2321.89191719891
 20
-2513.26050815874
  0
LWPOLYLINE
  5
20121
  8
0
100
AcDbEntity
100
AcDbPolyline
 70
0
 90
3
 10
2316.44016655843
 20
-2505.99150730476
 10
2305.17321523477
 20
-2528.52540995207
 10
2292.08901369763
 20
-2551.05931259938
  0
LWPOLYLINE
  5
20122
  8
0
100
AcDbEntity
100
AcDbPolyline
 70
0
 90
3
 10
2362.59832198114
 20
-2578.68151584447
 10
2384.76877458576
 20
-2545.9710120016
 10
2388.76672505544
 20
-2539.06546119033
  0
LWPOLYLINE
  5
20123
  8
0
100
AcDbEntity
100
AcDbPolyline
 70
0
 90
2
 10
2279.80211228268
 20
-2538.93872453008
 10
2296.16191689985
 20
-2544.04486819555
  0
LWPOLYLINE
  5
20124
  8
0
100
AcDbEntity
100
AcDbPolyline
 70
0
 90
2
 10
2356.41967125527
 20
-2564.50696417923
 10
2362.23487193845
 20
-2552.14966272748
  0
LWPOLYLINE
  5
20125
  8
0
100
AcDbEntity
100
AcDbPolyline
 70
0
 90
4
 10
2580.66834760027
 20
-2664.09227587863
 10
2594.84289926552
 20
-2615.02652011433
 10
2602.47535016219
 20
-2587.40431686924
 10
2610.10780105885
 20
-2555.42071311177
  0
LWPOLYLINE
  5
20126
  8
0
100
AcDbEntity
100
AcDbPolyline
 70
0
 90
3
 10
1217.6870029038
 20
-2014.56987782856
 10
1223.5458881639
 20
-1960.08954317155
 10
1225.72658842009
 20
-1924.47143898709
  0
LWPOLYLINE
  5
20127
  8
0
100
AcDbEntity
100
AcDbPolyline
 70
0
 90
4
 10
1262.79849277534
 20
-1941.91704103662
 10
1206.82718619977
 20
-1881.58433394866
 10
1173.7968945649
 20
-1842.03570249381
 10
1159.78312129797
 20
-1816.00431686924
  0
LWPOLYLINE
  5
20128
  8
0
100
AcDbEntity
100
AcDbPolyline
 70
0
 90
3
 10
1081.80037151146
 20
-2126.54966272748
 10
1079.61967125527
 20
-2070.5783561519
 10
1078.52932112718
 20
-2032.05265162586
  0
LWPOLYLINE
  5
20129
  8
0
100
AcDbEntity
100
AcDbPolyline
 70
0
 90
3
 10
1026.19251497859
 20
-2112.01166101954
 10
1041.09396672923
 20
-2091.29500858572
 10
1049.45331771129
 20
-2079.66460721937
  0
LWPOLYLINE
  5
2012A
  8
0
100
AcDbEntity
100
AcDbPolyline
 70
0
 90
2
 10
1039.29551565587
 20
-2093.79529422429
 10
1081.02383215617
 20
-2106.61848594169
  0
LWPOLYLINE
  5
2012B
  8
0
100
AcDbEntity
100
AcDbPolyline
 70
0
 90
2
 10
1080.01776473417
 20
-2080.79608877702
 10
1121.77987620831
 20
-2086.57015803064
  0
LWPOLYLINE
  5
2012C
  8
0
100
AcDbEntity
100
AcDbPolyline
 70
0
 90
2
 10
2493.44033735262
 20
-2637.56042276164
 10
2513.06663965834
 20
-2535.79441080605
  0
LWPOLYLINE
  5
2012D
  8
0
100
AcDbEntity
100
AcDbPolyline
 70
0
 90
3
 10
2454.18773274118
 20
-2596.8540179794
 10
2468.72573444912
 20
-2524.89090952509
 10
2475.99473530309
 20
-2497.26870628
  0
LWPOLYLINE
  5
2012E
  8
0
100
AcDbEntity
100
AcDbPolyline
 70
0
 90
3
 10
1978.07383378003
 20
-1567.54612681948
 10
2028.95118278388
 20
-1508.68459013995
 10
2059.48098637056
 20
-1443.26358245421
  0
LWPOLYLINE
  5
2012F
  8
0
100
AcDbEntity
100
AcDbPolyline
 70
0
 90
2
 10
1961.34947484195
 20
-1541.39509398282
 10
2018.04768150292
 20
-1468.70508544311
  0
LWPOLYLINE
  5
20130
  8
0
100
AcDbEntity
100
AcDbPolyline
 70
0
 90
2
 10
2034.88485823622
 20
-1586.0478014508
 10
2075.47278824929
 20
-1517.40739116472
  0
LWPOLYLINE
  5
20131
  8
0
100
AcDbEntity
100
AcDbPolyline
 70
0
 90
3
 10
1931.71752847737
 20
-1552.44924578221
 10
1929.36587108448
 20
-1452.71328356438
 10
1920.64307005971
 20
-1385.11157562245
  0
LWPOLYLINE
  5
20132
  8
0
100
AcDbEntity
100
AcDbPolyline
 70
0
 90
3
 10
1889.33462077209
 20
-1538.64638311957
 10
1896.65536724161
 20
-1428.72558074627
 10
1903.92436809558
 20
-1386.56537579324
  0
LWPOLYLINE
  5
20133
  8
0
100
AcDbEntity
100
AcDbPolyline
 70
0
 90
3
 10
1851.30784604744
 20
-1526.26218445446
 10
1872.66766442351
 20
-1497.0541887736
 10
1894.2390523197
 20
-1465.00648134954
  0
LWPOLYLINE
  5
20134
  8
0
100
AcDbEntity
100
AcDbPolyline
 70
0
 90
6
 10
1767.91659674023
 20
-1737.87893283373
 10
1767.99405212632
 20
-1688.95581131843
 10
1772.35545263871
 20
-1642.43420585302
 10
1776.71685315109
 20
-1590.09739970443
 10
1777.44375323649
 20
-1562.47519645934
 10
1773.0823527241
 20
-1521.7687916771
  0
LWPOLYLINE
  5
20135
  8
0
100
AcDbEntity
100
AcDbPolyline
 70
0
 90
2
 10
1777.0516296264
 20
-1577.37589364241
 10
1804.20177088758
 20
-1586.06870521476
  0
LWPOLYLINE
  5
20136
  8
0
100
AcDbEntity
100
AcDbPolyline
 70
0
 90
3
 10
1967.52812556783
 20
-1759.82856964465
 10
2002.05587962419
 20
-1702.40346289828
 10
2030.40498295467
 20
-1660.24325794525
  0
LWPOLYLINE
  5
20137
  8
0
100
AcDbEntity
100
AcDbPolyline
 70
0
 90
3
 10
1964.62052522624
 20
-1727.84496588718
 10
1993.69652864212
 20
-1670.7833091835
 10
2022.772532058
 20
-1608.99680192475
  0
LWPOLYLINE
  5
20138
  8
0
100
AcDbEntity
100
AcDbPolyline
 70
0
 90
4
 10
1832.99825549551
 20
-1760.70757621251
 10
1857.03931258747
 20
-1709.30901370955
 10
1890.11326647303
 20
-1659.15290781715
 10
1924.2775704867
 20
-1604.99885145507
  0
LWPOLYLINE
  5
20139
  8
0
100
AcDbEntity
100
AcDbPolyline
 70
0
 90
4
 10
2283.28414554242
 20
-1918.77514907436
 10
2267.73786083683
 20
-1839.78757903833
 10
2232.84665673776
 20
-1701.67656281288
 10
2225.31051420071
 20
-1651.83017545848
  0
LWPOLYLINE
  5
2013A
  8
0
100
AcDbEntity
100
AcDbPolyline
 70
0
 90
3
 10
3095.54965328474
 20
-1775.45128283186
 10
3129.11446203238
 20
-1688.59236127573
 10
3145.9675626428
 20
-1645.22231041588
  0
LWPOLYLINE
  5
2013B
  8
0
100
AcDbEntity
100
AcDbPolyline
 70
0
 90
2
 10
3162.84544876457
 20
-1650.6798304792
 10
3172.00156707081
 20
-1589.00704957633
  0
LWPOLYLINE
  5
2013C
  8
0
100
AcDbEntity
100
AcDbPolyline
 70
0
 90
3
 10
3107.95586767885
 20
-1632.93110366106
 10
3118.21096075142
 20
-1584.64564906395
 10
3122.57236126381
 20
-1547.5737447087
  0
LWPOLYLINE
  5
2013D
  8
0
100
AcDbEntity
100
AcDbPolyline
 70
0
 90
3
 10
3447.06231684053
 20
-1900.61333237289
 10
3458.40020071726
 20
-1833.24547826975
 10
3472.99493595624
 20
-1763.57919714608
  0
LWPOLYLINE
  5
2013E
  8
0
100
AcDbEntity
100
AcDbPolyline
 70
0
 90
3
 10
2884.47046651728
 20
-1689.07154081442
 10
2872.51873188721
 20
-1577.37664820998
 10
2873.0092301663
 20
-1556.96033464503
  0
LWPOLYLINE
  5
2013F
  8
0
100
AcDbEntity
100
AcDbPolyline
 70
0
 90
4
 10
3077.08086577599
 20
-1768.87515759714
 10
3084.77355682316
 20
-1708.94556366685
 10
3078.23145605458
 20
-1647.88595649349
 10
3072.96272531103
 20
-1621.61595582956
  0
LWPOLYLINE
  5
20140
  8
0
100
AcDbEntity
100
AcDbPolyline
 70
0
 90
3
 10
2873.71891515874
 20
-1588.59295661779
 10
2856.52693000847
 20
-1624.98860380348
 10
2843.80617851402
 20
-1638.07280534063
  0
LWPOLYLINE
  5
20141
  8
0
100
AcDbEntity
100
AcDbPolyline
 70
0
 90
4
 10
2720.24773759386
 20
-1828.47979538337
 10
2729.68286510668
 20
-1786.72387280434
 10
2741.67671651573
 20
-1741.29261746702
 10
2755.85126818097
 20
-1696.5882622151
  0
LWPOLYLINE
  5
20142
  8
0
100
AcDbEntity
100
AcDbPolyline
 70
0
 90
4
 10
2619.92095221172
 20
-1664.24120841493
 10
2772.20652010241
 20
-1730.38911618606
 10
2895.77953461991
 20
-1764.55342019973
 10
2952.47774128089
 20
-1776.54727160878
  0
LWPOLYLINE
  5
20143
  8
0
100
AcDbEntity
100
AcDbPolyline
 70
0
 90
2
 10
2571.94554657551
 20
-1651.88390696318
 10
2575.30077592046
 20
-1586.91136126219
  0
LWPOLYLINE
  5
20144
  8
0
100
AcDbEntity
100
AcDbPolyline
 70
0
 90
2
 10
2541.05229294613
 20
-1643.88800602381
 10
2539.59849277534
 20
-1720.9394150759
  0
LWPOLYLINE
  5
20145
  8
0
100
AcDbEntity
100
AcDbPolyline
 70
0
 90
3
 10
2582.84904785646
 20
-1654.42805726207
 10
2541.05229294613
 20
-1643.88800602381
 10
2498.8920879931
 20
-1629.35000431587
  0
LWPOLYLINE
  5
20146
  8
0
100
AcDbEntity
100
AcDbPolyline
 70
0
 90
3
 10
1669.49909055502
 20
-725.449748124581
 10
1843.95511105032
 20
-1059.82378740724
 10
1896.29191719891
 20
-1180.48920158316
  0
LWPOLYLINE
  5
20147
  8
0
100
AcDbEntity
100
AcDbPolyline
 70
0
 90
3
 10
1233.35903931676
 20
-761.794752394436
 10
1707.29789499566
 20
-901.359568790678
 10
1778.99422139783
 20
-935.315415573314
  0
LWPOLYLINE
  5
20148
  8
0
100
AcDbEntity
100
AcDbPolyline
 70
0
 90
8
 10
1754.93847295509
 20
-889.208564391395
 10
2011.14213069165
 20
-982.772378355153
 10
2317.89396672922
 20
-1100.53019218948
 10
2514.15698978644
 20
-1187.75820243713
 10
2953.20464136628
 20
-1328.77681900417
 10
3105.85365929967
 20
-1378.20602481117
 10
3521.64050814681
 20
-1538.12404359853
 10
3879.8482887712
 20
-1670.11446014661
  0
LWPOLYLINE
  5
20149
  8
0
100
AcDbEntity
100
AcDbPolyline
 70
0
 90
2
 10
1724.85582633031
 20
-831.550158360558
 10
1694.94059354391
 20
-822.490909525093
  0
LWPOLYLINE
  5
2014A
  8
0
100
AcDbEntity
100
AcDbPolyline
 70
0
 90
2
 10
1746.88316710533
 20
-873.769228179346
 10
1732.01249789917
 20
-872.647015417493
  0
LWPOLYLINE
  5
2014B
  8
0
100
AcDbEntity
100
AcDbPolyline
 70
0
 90
3
 10
1717.11104614852
 20
-745.8029505157
 10
1746.18704956441
 20
-837.028911233035
 10
1785.50092736202
 20
-900.369762571265
  0
LWPOLYLINE
  5
2014C
  8
0
100
AcDbEntity
100
AcDbPolyline
 70
0
 90
5
 10
1657.44058776165
 20
-886.677662365937
 10
1659.32248935946
 20
-805.408757518261
 10
1660.77628953025
 20
-741.441550003317
 10
1660.77628953025
 20
-731.264948807758
 10
1661.50318961565
 20
-725.086298081883
  0
LWPOLYLINE
  5
2014D
  8
0
100
AcDbEntity
100
AcDbPolyline
 70
0
 90
9
 10
1112.45889698826
 20
-557.634262784417
 10
1259.16399234835
 20
-596.90958302353
 10
1662.71468975798
 20
-733.203349035484
 10
1676.45270533924
 20
-738.777509794354
 10
2055.48303590087
 20
-854.474513282565
 10
2439.28628099054
 20
-991.131729337219
 10
2956.83914179327
 20
-1199.02515376079
 10
3352.27278824929
 20
-1342.95137066941
 10
3820.39644324502
 20
-1515.95359099392
  0
LWPOLYLINE
  5
2014E
  8
0
100
AcDbEntity
100
AcDbPolyline
 70
0
 90
3
 10
1322.00318863044
 20
-618.132667928166
 10
1320.58704956441
 20
-736.716699448236
 10
1322.19282328716
 20
-787.954394299829
  0
LWPOLYLINE
  5
2014F
  8
0
100
AcDbEntity
100
AcDbPolyline
 70
0
 90
3
 10
1271.8847438428
 20
-601.149833521678
 10
1272.9750939709
 20
-659.301840353446
 10
1279.15374469678
 20
-706.550345904257
  0
LWPOLYLINE
  5
20150
  8
0
100
AcDbEntity
100
AcDbPolyline
 70
0
 90
2
 10
1272.56635636968
 20
-637.502501621556
 10
1291.29583728526
 20
-607.761677155627
  0
LWPOLYLINE
  5
20151
  8
0
100
AcDbEntity
100
AcDbPolyline
 70
0
 90
3
 10
1343.30126745075
 20
-625.325804725779
 10
1346.02855255331
 20
-686.197143513138
 10
1350.02650302299
 20
-705.096545733463
  0
LWPOLYLINE
  5
20152
  8
0
100
AcDbEntity
100
AcDbPolyline
 70
0
 90
3
 10
1347.29515987025
 20
-692.184741738693
 10
1335.12505127235
 20
-734.899449234744
 10
1329.30985058918
 20
-750.89125111348
  0
LWPOLYLINE
  5
20153
  8
0
100
AcDbEntity
100
AcDbPolyline
 70
0
 90
2
 10
1364.20105468824
 20
-702.188945391874
 10
1402.4152885348
 20
-645.05324513673
  0
LWPOLYLINE
  5
20154
  8
0
100
AcDbEntity
100
AcDbPolyline
 70
0
 90
5
 10
1544.10882582402
 20
-694.071894438274
 10
1547.0164261656
 20
-758.039101953219
 10
1560.58522775968
 20
-794.384106223073
 10
1587.72283094784
 20
-820.067909240437
 10
1608.07603333896
 20
-838.48271140383
  0
LWPOLYLINE
  5
20155
  8
0
100
AcDbEntity
100
AcDbPolyline
 70
0
 90
3
 10
1594.50723174488
 20
-711.032896430873
 10
1607.59143328203
 20
-782.75370485672
 10
1614.37583407907
 20
-803.106907247838
  0
LWPOLYLINE
  5
20156
  8
0
100
AcDbEntity
100
AcDbPolyline
 70
0
 90
2
 10
1486.92601910611
 20
-739.139699732894
 10
1555.15050881882
 20
-779.826823345757
  0
LWPOLYLINE
  5
20157
  8
0
100
AcDbEntity
100
AcDbPolyline
 70
0
 90
3
 10
1521.81722320517
 20
-809.406707987947
 10
1532.47842445766
 20
-786.14590525524
 10
1539.38900873573
 20
-770.42711797742
  0
LWPOLYLINE
  5
20158
  8
0
100
AcDbEntity
100
AcDbPolyline
 70
0
 90
2
 10
1507.76382155416
 20
-792.445705995348
 10
1531.39996056162
 20
-765.662679401508
  0
LWPOLYLINE
  5
20159
  8
0
100
AcDbEntity
100
AcDbPolyline
 70
0
 90
2
 10
1499.52562058633
 20
-775.484704002749
 10
1517.90465951713
 20
-757.614469966708
  0
LWPOLYLINE
  5
2015A
  8
0
100
AcDbEntity
100
AcDbPolyline
 70
0
 90
3
 10
1671.81704492805
 20
-890.911220304509
 10
1669.62024056925
 20
-942.187123587149
 10
1673.01244096777
 20
-979.016727913935
  0
LWPOLYLINE
  5
2015B
  8
0
100
AcDbEntity
100
AcDbPolyline
 70
0
 90
3
 10
1293.78871928523
 20
-779.589995575334
 10
1296.47819673207
 20
-850.597712827115
 10
1303.26259752911
 20
-913.595720228197
  0
LWPOLYLINE
  5
2015C
  8
0
100
AcDbEntity
100
AcDbPolyline
 70
0
 90
3
 10
1297.36077203463
 20
-858.793054922343
 10
1320.22359952171
 20
-906.811319431157
 10
1325.06960009102
 20
-924.256921480688
  0
LWPOLYLINE
  5
2015D
  8
0
100
AcDbEntity
100
AcDbPolyline
 70
0
 90
3
 10
1248.24640102661
 20
-766.17876075071
 10
1282.90939513799
 20
-833.636710834517
 10
1296.93694540553
 20
-854.857521937764
  0
LWPOLYLINE
  5
2015E
  8
0
100
AcDbEntity
100
AcDbPolyline
 70
0
 90
3
 10
1310.97207370238
 20
-784.650124483454
 10
1325.06960009102
 20
-842.359511859282
 10
1333.30780105886
 20
-886.458117040039
  0
LWPOLYLINE
  5
2015F
  8
0
100
AcDbEntity
100
AcDbPolyline
 70
0
 90
3
 10
1232.0263891602
 20
-911.657320000471
 10
1325.06960009102
 20
-924.256921480688
 10
1367.71440510099
 20
-930.072122163864
  0
LWPOLYLINE
  5
20160
  8
0
100
AcDbEntity
100
AcDbPolyline
 70
0
 90
3
 10
1249.35116391796
 20
-914.003383248919
 10
1253.34879166518
 20
-884.035116755382
 10
1250.92579138052
 20
-849.628512713253
  0
LWPOLYLINE
  5
20161
  8
0
100
AcDbEntity
100
AcDbPolyline
 70
0
 90
3
 10
1278.26544465102
 20
-917.918858764854
 10
1280.48639485334
 20
-888.396517267764
 10
1278.06339456868
 20
-854.959113339498
  0
LWPOLYLINE
  5
20162
  8
0
100
AcDbEntity
100
AcDbPolyline
 70
0
 90
3
 10
1238.93951184736
 20
-721.429082027232
 10
1221.49390979783
 20
-649.223673544453
 10
1208.65088226046
 20
-583.386408725418
  0
LWPOLYLINE
  5
20163
  8
0
100
AcDbEntity
100
AcDbPolyline
 70
0
 90
3
 10
1219.23725125066
 20
-637.65535556464
 10
1233.12431116418
 20
-617.24006978698
 10
1246.58504755323
 20
-593.541996615669
  0
LWPOLYLINE
  5
20164
  8
0
100
AcDbEntity
100
AcDbPolyline
 70
0
 90
3
 10
1890.04399741323
 20
-803.975121889191
 10
1881.03458728147
 20
-910.907704287411
 10
1878.00279541388
 20
-934.150808674066
  0
LWPOLYLINE
  5
20165
  8
0
100
AcDbEntity
100
AcDbPolyline
 70
0
 90
3
 10
1751.89920922411
 20
-846.232100439856
 10
1761.33837321941
 20
-808.657092274885
 10
1768.60737407338
 20
-785.880889599109
  0
LWPOLYLINE
  5
20166
  8
0
100
AcDbEntity
100
AcDbPolyline
 70
0
 90
2
 10
1781.69157561053
 20
-812.049292673404
 10
1798.99141859975
 20
-776.181803837353
  0
LWPOLYLINE
  5
20167
  8
0
100
AcDbEntity
100
AcDbPolyline
 70
0
 90
2
 10
1846.14338318241
 20
-846.940496772466
 10
1843.6614177258
 20
-789.817084784517
  0
LWPOLYLINE
  5
20168
  8
0
100
AcDbEntity
100
AcDbPolyline
 70
0
 90
2
 10
1934.82519360085
 20
-893.946702294812
 10
1946.43561660402
 20
-821.188365358536
  0
LWPOLYLINE
  5
20169
  8
0
100
AcDbEntity
100
AcDbPolyline
 70
0
 90
2
 10
1959.20442371441
 20
-963.8050849283
 10
1986.19279963558
 20
-926.899506166147
  0
LWPOLYLINE
  5
2016A
  8
0
100
AcDbEntity
100
AcDbPolyline
 70
0
 90
2
 10
1992.49260037569
 20
-894.915902408675
 10
2019.6724924054
 20
-843.543534303729
  0
LWPOLYLINE
  5
2016B
  8
0
100
AcDbEntity
100
AcDbPolyline
 70
0
 90
3
 10
1810.28297896948
 20
-883.527801070786
 10
1832.0899815314
 20
-845.00209654474
 10
1845.37539331882
 20
-829.264907749422
  0
LWPOLYLINE
  5
2016C
  8
0
100
AcDbEntity
100
AcDbPolyline
 70
0
 90
4
 10
2205.71662542551
 20
-987.959113339504
 10
2211.04722605176
 20
-929.807106507736
 10
2211.53182610869
 20
-912.846104515137
 10
2211.07051864302
 20
-909.873086683179
  0
LWPOLYLINE
  5
2016D
  8
0
100
AcDbEntity
100
AcDbPolyline
 70
0
 90
2
 10
2025.93000430396
 20
-905.577103661166
 10
2050.88504130197
 20
-853.070999752766
  0
LWPOLYLINE
  5
2016E
  8
0
100
AcDbEntity
100
AcDbPolyline
 70
0
 90
2
 10
2076.81301028176
 20
-938.529907532501
 10
2094.43535872757
 20
-868.343900955709
  0
LWPOLYLINE
  5
2016F
  8
0
100
AcDbEntity
100
AcDbPolyline
 70
0
 90
2
 10
2181.97122263587
 20
-945.314308329541
 10
2188.99005384759
 20
-902.011103006017
  0
LWPOLYLINE
  5
20170
  8
0
100
AcDbEntity
100
AcDbPolyline
 70
0
 90
2
 10
2127.21141620262
 20
-927.384106223079
 10
2154.32010757516
 20
-889.666500924168
  0
LWPOLYLINE
  5
20171
  8
0
100
AcDbEntity
100
AcDbPolyline
 70
0
 90
3
 10
2224.33769477509
 20
-914.597005457476
 10
2235.27722889833
 20
-949.191108784992
 10
2243.51542986616
 20
-965.66751072066
  0
LWPOLYLINE
  5
20172
  8
0
100
AcDbEntity
100
AcDbPolyline
 70
0
 90
4
 10
2239.63862941071
 20
-986.989913225642
 10
2243.51542986616
 20
-965.66751072066
 10
2251.75363083399
 20
-938.529907532501
 10
2258.88383144707
 20
-926.897523817953
  0
LWPOLYLINE
  5
20173
  8
0
100
AcDbEntity
100
AcDbPolyline
 70
0
 90
4
 10
2234.79262884139
 20
-969.22124447149
 10
2239.63862941071
 20
-986.989913225642
 10
2239.96169611533
 20
-1020.75038385853
 10
2243.17284040429
 20
-1071.84577876617
  0
LWPOLYLINE
  5
20174
  8
0
100
AcDbEntity
100
AcDbPolyline
 70
0
 90
4
 10
2311.48155267071
 20
-945.62550031425
 10
2310.17485991961
 20
-1008.47384908293
 10
2304.14428143336
 20
-1053.70318772987
 10
2291.17349965922
 20
-1090.27257212943
  0
LWPOLYLINE
  5
20175
  8
0
100
AcDbEntity
100
AcDbPolyline
 70
0
 90
5
 10
2338.12595791302
 20
-955.11252339295
 10
2336.88170750161
 20
-1005.88931544597
 10
2323.09752810445
 20
-1059.30301060996
 10
2311.03637113194
 20
-1095.48648152751
 10
2309.24747599919
 20
-1097.21092323625
  0
LWPOLYLINE
  5
20176
  8
0
100
AcDbEntity
100
AcDbPolyline
 70
0
 90
3
 10
2363.45551967924
 20
-964.13138250668
 10
2357.98873220351
 20
-1014.07367196303
 10
2356.69646538503
 20
-1040.78051954503
  0
LWPOLYLINE
  5
20177
  8
0
100
AcDbEntity
100
AcDbPolyline
 70
0
 90
3
 10
2463.32389814223
 20
-1000.78728903579
 10
2436.38625252486
 20
-1072.65643440096
 10
2402.09986177005
 20
-1137.95503442985
  0
LWPOLYLINE
  5
20178
  8
0
100
AcDbEntity
100
AcDbPolyline
 70
0
 90
2
 10
2448.44740949737
 20
-1207.91369473559
 10
2474.36022489846
 20
-1170.07075137581
  0
LWPOLYLINE
  5
20179
  8
0
100
AcDbEntity
100
AcDbPolyline
 70
0
 90
2
 10
2550.0936849253
 20
-1035.6414449627
 10
2474.36022489846
 20
-1170.07075137581
  0
LWPOLYLINE
  5
2017A
  8
0
100
AcDbEntity
100
AcDbPolyline
 70
0
 90
2
 10
2575.9510689211
 20
-1250.12774413939
 10
2596.25991234985
 20
-1214.12900869094
  0
LWPOLYLINE
  5
2017B
  8
0
100
AcDbEntity
100
AcDbPolyline
 70
0
 90
3
 10
2574.98044069715
 20
-1207.29421150448
 10
2611.27302862632
 20
-1126.93164077728
 10
2655.94444809157
 20
-1078.16015039185
  0
LWPOLYLINE
  5
2017C
  8
0
100
AcDbEntity
100
AcDbPolyline
 70
0
 90
2
 10
2609.03279347599
 20
-1059.31642395918
 10
2598.92003921218
 20
-1154.284828911
  0
LWPOLYLINE
  5
2017D
  8
0
100
AcDbEntity
100
AcDbPolyline
 70
0
 90
3
 10
2706.26721533566
 20
-1098.37407094214
 10
2702.59321713251
 20
-1189.82195927682
 10
2705.19405050048
 20
-1249.11778816317
  0
LWPOLYLINE
  5
2017E
  8
0
100
AcDbEntity
100
AcDbPolyline
 70
0
 90
3
 10
2883.95971954849
 20
-1169.75055437595
 10
2848.18861201501
 20
-1245.82018807778
 10
2827.37581695064
 20
-1288.36160056603
  0
LWPOLYLINE
  5
2017F
  8
0
100
AcDbEntity
100
AcDbPolyline
 70
0
 90
4
 10
3168.37888848445
 20
-1402.25418988224
 10
3170.82456102978
 20
-1373.32384750151
 10
3179.43967315301
 20
-1335.41735415932
 10
3196.52975818509
 20
-1286.2654884034
  0
LWPOLYLINE
  5
20180
  8
0
100
AcDbEntity
100
AcDbPolyline
 70
0
 90
3
 10
3170.82456102978
 20
-1373.32384750151
 10
3194.51611936865
 20
-1367.72402462141
 10
3225.53052301226
 20
-1358.24740128587
  0
LWPOLYLINE
  5
20181
  8
0
100
AcDbEntity
100
AcDbPolyline
 70
0
 90
3
 10
3367.72103698931
 20
-1478.9242469995
 10
3365.52609501467
 20
-1440.52172206266
 10
3360.78778334689
 20
-1402.18447311431
  0
LWPOLYLINE
  5
20182
  8
0
100
AcDbEntity
100
AcDbPolyline
 70
0
 90
4
 10
3283.14639246003
 20
-1446.39553756515
 10
3284.54404105635
 20
-1417.26091932996
 10
3283.25177423787
 20
-1360.83193492283
 10
3282.82101863171
 20
-1348.34002234416
  0
LWPOLYLINE
  5
20183
  8
0
100
AcDbEntity
100
AcDbPolyline
 70
0
 90
4
 10
3515.71223238237
 20
-1535.84393753529
 10
3525.76718050665
 20
-1490.48937237737
 10
3543.85891596543
 20
-1432.3373655456
 10
3549.78575607888
 20
-1415.94529356296
  0
LWPOLYLINE
  5
20184
  8
0
100
AcDbEntity
100
AcDbPolyline
 70
0
 90
2
 10
3760.56369825412
 20
-1493.84148958424
 10
3745.37640422587
 20
-1620.80140358174
  0
LWPOLYLINE
  5
20185
  8
0
100
AcDbEntity
100
AcDbPolyline
 70
0
 90
4
 10
2982.34575363208
 20
-1338.21298869024
 10
3127.10286700442
 20
-1554.45657989231
 10
3172.00156707081
 20
-1589.00704957633
 10
3239.96083581867
 20
-1656.11490294637
  0
LWPOLYLINE
  5
20186
  8
0
100
AcDbEntity
100
AcDbPolyline
 70
0
 90
3
 10
3535.02842603912
 20
-1622.08521005963
 10
3557.4277175595
 20
-1587.62476156673
 10
3571.70268562484
 20
-1556.57067713372
  0
LWPOLYLINE
  5
20187
  8
0
100
AcDbEntity
100
AcDbPolyline
 70
0
 90
3
 10
2202.65229500378
 20
-1056.29049830436
 10
2324.17441711985
 20
-1219.32871829886
 10
2393.95682531798
 20
-1295.14170498324
  0
LWPOLYLINE
  5
20188
  8
0
100
AcDbEntity
100
AcDbPolyline
 70
0
 90
2
 10
2273.40982184874
 20
-1151.22120743892
 10
2298.75983635634
 20
-1143.51573161449
  0
LWPOLYLINE
  5
20189
  8
0
100
AcDbEntity
100
AcDbPolyline
 70
0
 90
2
 10
2286.483660852
 20
-1168.76151534722
 10
2327.18970636298
 20
-1155.576888587
  0
LWPOLYLINE
  5
2018A
  8
0
100
AcDbEntity
100
AcDbPolyline
 70
0
 90
3
 10
2253.09974210325
 20
-1188.74507026142
 10
2277.65281165444
 20
-1183.57600298748
 10
2294.15769608945
 20
-1179.05726252067
  0
LWPOLYLINE
  5
2018B
  8
0
100
AcDbEntity
100
AcDbPolyline
 70
0
 90
2
 10
2257.83805377102
 20
-1173.23786843961
 10
2283.6055533174
 20
-1164.90014820499
  0
LWPOLYLINE
  5
2018C
  8
0
100
AcDbEntity
100
AcDbPolyline
 70
0
 90
3
 10
2366.89754406841
 20
-1265.7439673294
 10
2389.2185136502
 20
-1271.88090225054
 10
2439.61691957107
 20
-1292.98792695244
  0
LWPOLYLINE
  5
2018D
  8
0
100
AcDbEntity
100
AcDbPolyline
 70
0
 90
3
 10
2095.87394585439
 20
-1105.17848266613
 10
2196.67075769612
 20
-1107.33226069694
 10
2239.68556210245
 20
-1105.97559138215
  0
LWPOLYLINE
  5
2018E
  8
0
100
AcDbEntity
100
AcDbPolyline
 70
0
 90
3
 10
2126.92019557976
 20
-1105.84186407052
 10
2191.93244602835
 20
-1150.40782131307
 10
2236.73102906912
 20
-1171.94560162113
  0
LWPOLYLINE
  5
2018F
  8
0
100
AcDbEntity
100
AcDbPolyline
 70
0
 90
7
 10
2008.86131340982
 20
-1017.30433900924
 10
2053.22914084443
 20
-1053.05705432062
 10
2095.87394585439
 20
-1105.17848266613
 10
2114.82719252549
 20
-1133.17759706662
 10
2165.22559844635
 20
-1175.39164647042
 10
2253.53049770941
 20
-1219.32871829886
 10
2302.63663681179
 20
-1243.88178785006
  0
LWPOLYLINE
  5
20190
  8
0
100
AcDbEntity
100
AcDbPolyline
 70
0
 90
3
 10
2314.48241598122
 20
-1253.78916679176
 10
2342.69690818479
 20
-1263.48116793039
 10
2371.48303611359
 20
-1270.7257364649
  0
LWPOLYLINE
  5
20191
  8
0
100
AcDbEntity
100
AcDbPolyline
 70
0
 90
4
 10
2321.58988348288
 20
-1301.1722834695
 10
2324.60517272601
 20
-1285.88045945078
 10
2327.62046196914
 20
-1271.88090225054
 10
2333.10139261988
 20
-1260.18499846153
  0
LWPOLYLINE
  5
20192
  8
0
100
AcDbEntity
100
AcDbPolyline
 70
0
 90
4
 10
2340.54313015398
 20
-1305.91059513727
 10
2342.69690818479
 20
-1290.18801551239
 10
2343.55841939711
 20
-1274.68081369058
 10
2346.04099354155
 20
-1264.32276967732
  0
LWPOLYLINE
  5
20193
  8
0
100
AcDbEntity
100
AcDbPolyline
 70
0
 90
9
 10
1919.91028073752
 20
-1023.98105090474
 10
1980.64682120626
 20
-1063.17981106541
 10
2031.47598273329
 20
-1110.13217213699
 10
2115.47332593473
 20
-1182.92986957824
 10
2179.22515564659
 20
-1222.55938534507
 10
2213.68560413949
 20
-1244.09716565314
 10
2249.00756384472
 20
-1277.69610293371
 10
2303.28277022103
 20
-1310.43352900197
 10
2317.49770522435
 20
-1320.34090794368
  0
LWPOLYLINE
  5
20194
  8
0
100
AcDbEntity
100
AcDbPolyline
 70
0
 90
2
 10
2260.63796521107
 20
-1334.98659855316
 10
2265.37627687884
 20
-1296.64934960481
  0
LWPOLYLINE
  5
20195
  8
0
100
AcDbEntity
100
AcDbPolyline
 70
0
 90
3
 10
2061.94374373903
 20
-1272.02974083281
 10
2075.41305456173
 20
-1234.18978671143
 10
2079.72061062334
 20
-1208.34445034175
  0
LWPOLYLINE
  5
20196
  8
0
100
AcDbEntity
100
AcDbPolyline
 70
0
 90
2
 10
2166.97358563215
 20
-1214.94354452529
 10
2186.86938543409
 20
-1186.16075023992
  0
LWPOLYLINE
  5
20197
  8
0
100
AcDbEntity
100
AcDbPolyline
 70
0
 90
4
 10
2176.00663754366
 20
-1201.87563684998
 10
2200.33218034849
 20
-1216.95956246498
 10
2218.85467141343
 20
-1223.4208965574
 10
2236.08489565988
 20
-1225.5746745882
  0
LWPOLYLINE
  5
20198
  8
0
100
AcDbEntity
100
AcDbPolyline
 70
0
 90
3
 10
2221.18683230925
 20
-1251.23248025363
 10
2223.16222747504
 20
-1285.44970384462
 10
2221.86996065656
 20
-1296.21859399865
  0
LWPOLYLINE
  5
20199
  8
0
100
AcDbEntity
100
AcDbPolyline
 70
0
 90
4
 10
1783.70171551824
 20
-944.338112637427
 10
1834.18991511143
 20
-968.844333316099
 10
1876.40396451524
 20
-993.828158473451
 10
1896.21872239865
 20
-1007.61233787061
  0
LWPOLYLINE
  5
2019A
  8
0
100
AcDbEntity
100
AcDbPolyline
 70
0
 90
3
 10
1940.69855975102
 20
-1037.39759977161
 10
1943.60183907639
 20
-1062.31829985309
 10
1943.60183907639
 20
-1080.41003531186
  0
LWPOLYLINE
  5
2019B
  8
0
100
AcDbEntity
100
AcDbPolyline
 70
0
 90
3
 10
1927.66388164842
 20
-997.704958928903
 10
1967.72415302142
 20
-1031.73465181564
 10
1990.1234445418
 20
-1058.01074379148
  0
LWPOLYLINE
  5
2019C
  8
0
100
AcDbEntity
100
AcDbPolyline
 70
0
 90
3
 10
1609.55086649834
 20
-925.768772699974
 10
1673.30269621021
 20
-921.891972244523
 10
1706.47087788462
 20
-917.153660576749
  0
LWPOLYLINE
  5
2019D
  8
0
100
AcDbEntity
100
AcDbPolyline
 70
0
 90
3
 10
2454.06240416315
 20
-1406.02298372761
 10
2459.00092184832
 20
-1343.60171067638
 10
2462.87772230377
 20
-1269.51174641665
  0
LWPOLYLINE
  5
2019E
  8
0
100
AcDbEntity
100
AcDbPolyline
 70
0
 90
3
 10
2556.09054405471
 20
-1444.23429480669
 10
2567.98209020712
 20
-1394.86162780957
 10
2576.59720233034
 20
-1341.44793264558
  0
LWPOLYLINE
  5
2019F
  8
0
100
AcDbEntity
100
AcDbPolyline
 70
0
 90
4
 10
2549.02884353602
 20
-1295.35708278632
 10
2614.50369567253
 20
-1334.12508734084
 10
2669.64041326117
 20
-1364.70873537828
 10
2774.74478116451
 20
-1411.2303408437
  0
LWPOLYLINE
  5
201A0
  8
0
100
AcDbEntity
100
AcDbPolyline
 70
0
 90
3
 10
2628.84567593491
 20
-1342.08040451762
 10
2633.88769794979
 20
-1303.97219490955
 10
2642.07205446685
 20
-1252.71227777636
  0
LWPOLYLINE
  5
201A1
  8
0
100
AcDbEntity
100
AcDbPolyline
 70
0
 90
3
 10
3521.67500224812
 20
-1664.94539287267
 10
3521.67500224812
 20
-1717.49757682435
 10
3511.60423680215
 20
-1778.23382228467
  0
LWPOLYLINE
  5
201A2
  8
0
100
AcDbEntity
100
AcDbPolyline
 70
0
 90
2
 10
3443.33406066601
 20
-1752.32105470015
 10
3474.72264117654
 20
-1714.05153197506
  0
LWPOLYLINE
  5
201A3
  8
0
100
AcDbEntity
100
AcDbPolyline
 70
0
 90
2
 10
3578.10398665524
 20
-1631.3464555921
 10
3602.57312603008
 20
-1567.9456458209
  0
LWPOLYLINE
  5
201A4
  8
0
100
AcDbEntity
100
AcDbPolyline
 70
0
 90
3
 10
3088.76561805606
 20
-1884.19999640875
 10
3130.11815624754
 20
-1941.92124763435
 10
3171.3577098799
 20
-1981.89118441049
  0
LWPOLYLINE
  5
201A5
  8
0
100
AcDbEntity
100
AcDbPolyline
 70
0
 90
2
 10
3324.81969023242
 20
-1790.29527426559
 10
3370.75756151811
 20
-1725.98798863764
  0
LWPOLYLINE
  5
201A6
  8
0
100
AcDbEntity
100
AcDbPolyline
 70
0
 90
2
 10
2422.81745093077
 20
-1488.76634995272
 10
2438.71271139189
 20
-1400.27425709127
  0
LWPOLYLINE
  5
201A7
  8
0
100
AcDbEntity
100
AcDbPolyline
 70
0
 90
3
 10
3294.50479608537
 20
-1450.76415434413
 10
3294.66679780114
 20
-1512.02715268543
 10
3294.66679780114
 20
-1526.67284329491
  0
LWPOLYLINE
  5
201A8
  8
0
100
AcDbEntity
100
AcDbPolyline
 70
0
 90
2
 10
3366.1722284239
 20
-1541.31853390439
 10
3384.10196216691
 20
-1485.22460283703
  0
LWPOLYLINE
  5
201A9
  8
0
100
AcDbEntity
100
AcDbPolyline
 70
0
 90
2
 10
3219.05557424442
 20
-1635.47154915174
 10
3254.17577082198
 20
-1611.53169770868
  0
LWPOLYLINE
  5
201AA
  8
0
100
AcDbEntity
100
AcDbPolyline
 70
0
 90
2
 10
2184.07730507569
 20
-2033.1454489085
 10
2211.59770245964
 20
-2072.04996773969
  0
LWPOLYLINE
  5
201AB
  8
0
100
AcDbEntity
100
AcDbPolyline
 70
0
 90
3
 10
2990.86244493935
 20
-1595.06855978123
 10
2995.72240712523
 20
-1564.5793366371
 10
3002.18374121765
 20
-1515.47319753472
  0
LWPOLYLINE
  5
201AC
  8
0
100
AcDbEntity
100
AcDbPolyline
 70
0
 90
3
 10
2948.10472476886
 20
-1581.24271014526
 10
2963.41573666314
 20
-1545.19533435984
 10
2971.16933757404
 20
-1525.38057647643
  0
LWPOLYLINE
  5
201AD
  8
0
100
AcDbEntity
100
AcDbPolyline
 70
0
 90
3
 10
3074.55068305274
 20
-1595.59374028071
 10
3076.70446108354
 20
-1528.39586571956
 10
3081.21149328129
 20
-1485.90232906555
  0
LWPOLYLINE
  5
201AE
  8
0
100
AcDbEntity
100
AcDbPolyline
 70
0
 90
3
 10
2724.97350832433
 20
-1507.48389918566
 10
2726.06939766829
 20
-1460.33647994608
 10
2723.91561963748
 20
-1428.46056509015
  0
LWPOLYLINE
  5
201AF
  8
0
100
AcDbEntity
100
AcDbPolyline
 70
0
 90
3
 10
2700.65481690478
 20
-1444.39852251811
 10
2723.91561963748
 20
-1428.46056509015
 10
2736.40753221616
 20
-1418.12243054228
  0
LWPOLYLINE
  5
201B0
  8
0
100
AcDbEntity
100
AcDbPolyline
 70
0
 90
2
 10
2729.01993677443
 20
-1424.23630263198
 10
2719.60806357587
 20
-1405.6305179636
  0
LWPOLYLINE
  5
201B1
  8
0
100
AcDbEntity
100
AcDbPolyline
 70
0
 90
3
 10
2687.73214871994
 20
-1421.13771978541
 10
2719.60806357587
 20
-1405.6305179636
 10
2738.90891550129
 20
-1395.36856423866
  0
LWPOLYLINE
  5
201B2
  8
0
100
AcDbEntity
100
AcDbPolyline
 70
0
 90
3
 10
2741.57659949009
 20
-1414.24563008683
 10
2745.45339994555
 20
-1389.69256053563
 10
2750.62246721948
 20
-1366.43175780293
  0
LWPOLYLINE
  5
201B3
  8
0
100
AcDbEntity
100
AcDbPolyline
 70
0
 90
3
 10
2574.5329830209
 20
-1354.24609236413
 10
2605.45782794314
 20
-1356.52437886122
 10
2618.38049612798
 20
-1359.53966810435
  0
LWPOLYLINE
  5
201B4
  8
0
100
AcDbEntity
100
AcDbPolyline
 70
0
 90
2
 10
2151.44141904918
 20
-1084.71759137347
 10
2153.09120286342
 20
-1037.26467620308
  0
LWPOLYLINE
  5
201B5
  8
0
100
AcDbEntity
100
AcDbPolyline
 70
0
 90
3
 10
2108.79661403922
 20
-1081.70230213034
 10
2114.82719252548
 20
-1039.48825272654
 10
2116.27957690381
 20
-1023.13319893897
  0
LWPOLYLINE
  5
201B6
  8
0
100
AcDbEntity
100
AcDbPolyline
 70
0
 90
3
 10
2119.99625979941
 20
-1070.93341197631
 10
2128.61137192264
 20
-1039.05749712038
 10
2130.31101787812
 20
-1028.51967627982
  0
LWPOLYLINE
  5
201B7
  8
0
100
AcDbEntity
100
AcDbPolyline
 70
0
 90
2
 10
1994.21562280033
 20
-1045.08807560664
 10
2008.32321148239
 20
-981.742928444858
  0
LWPOLYLINE
  5
201B8
  8
0
100
AcDbEntity
100
AcDbPolyline
 70
0
 90
2
 10
1722.1934575095
 20
-1179.26844692586
 10
1723.57932112717
 20
-1151.26554658743
  0
LWPOLYLINE
  5
201B9
  8
0
100
AcDbEntity
100
AcDbPolyline
 70
0
 90
3
 10
1736.83914811898
 20
-1192.1911151107
 10
1738.13141493747
 20
-1168.93031237799
 10
1738.59078843848
 20
-1156.94785342278
  0
LWPOLYLINE
  5
201BA
  8
0
100
AcDbEntity
100
AcDbPolyline
 70
0
 90
2
 10
1802.74475586165
 20
-1309.78739559272
 10
1810.67103760881
 20
-1276.3832237864
  0
LWPOLYLINE
  5
201BB
  8
0
100
AcDbEntity
100
AcDbPolyline
 70
0
 90
2
 10
1915.38734687282
 20
-1275.11156929674
 10
1937.92225969433
 20
-1232.4010092089
  0
LWPOLYLINE
  5
201BC
  8
0
100
AcDbEntity
100
AcDbPolyline
 70
0
 90
3
 10
1774.74564146117
 20
-1245.38943247162
 10
1771.73035221804
 20
-1192.83724851994
 10
1773.03117116196
 20
-1169.98460846501
  0
LWPOLYLINE
  5
201BD
  8
0
100
AcDbEntity
100
AcDbPolyline
 70
0
 90
3
 10
1791.97586570762
 20
-1239.78960959152
 10
1787.66830964601
 20
-1187.66818124601
 10
1787.98063238555
 20
-1175.64344406942
  0
LWPOLYLINE
  5
201BE
  8
0
100
AcDbEntity
100
AcDbPolyline
 70
0
 90
3
 10
1621.39664566777
 20
-1054.13394333602
 10
1639.9191367327
 20
-1103.2400824384
 10
1651.48062469618
 20
-1131.05427266989
  0
ENDSEC
  0
SECTION
  2
OBJECTS
  0
DICTIONARY
  5
C
330
0
100
AcDbDictionary
281
     1
  3
ACAD_GROUP
350
D
  0
DICTIONARY
  5
D
102
{ACAD_REACTORS
330
C
102
}
330
C
100
AcDbDictionary
281
     1
  0
ENDSEC
  0
EOF
